<svg width="13" height="13" viewBox="0 0 13 13" fill="none" xmlns="http://www.w3.org/2000/svg">
<g clip-path="url(#clip0_675_2135)">
<path d="M12.5001 3.44516C12.5005 3.51096 12.4878 3.57619 12.463 3.63711C12.4381 3.69803 12.4014 3.75344 12.3551 3.80016L8.27008 7.88516C8.03785 8.11798 7.76198 8.30269 7.45825 8.42872C7.15453 8.55475 6.82892 8.61963 6.50008 8.61963C6.17125 8.61963 5.84564 8.55475 5.54192 8.42872C5.23819 8.30269 4.96232 8.11798 4.73009 7.88516L0.645093 3.80016C0.598473 3.75354 0.561493 3.6982 0.536263 3.63728C0.511033 3.57637 0.498047 3.51109 0.498047 3.44516C0.498047 3.37923 0.511033 3.31395 0.536263 3.25304C0.561493 3.19212 0.598473 3.13678 0.645093 3.09016C0.691712 3.04354 0.747057 3.00656 0.807968 2.98133C0.868879 2.9561 0.934163 2.94311 1.00009 2.94311C1.06602 2.94311 1.13131 2.9561 1.19222 2.98133C1.25313 3.00656 1.30847 3.04354 1.35509 3.09016L5.44009 7.17516C5.72134 7.45606 6.10258 7.61384 6.50008 7.61384C6.89759 7.61384 7.27883 7.45606 7.56008 7.17516L11.6451 3.09016C11.6916 3.0433 11.7469 3.0061 11.8078 2.98071C11.8687 2.95533 11.9341 2.94226 12.0001 2.94226C12.0661 2.94226 12.1314 2.95533 12.1924 2.98071C12.2533 3.0061 12.3086 3.0433 12.3551 3.09016C12.4014 3.13688 12.4381 3.19229 12.463 3.25321C12.4878 3.31413 12.5005 3.37936 12.5001 3.44516Z" fill="#C5EEE9"/>
</g>
<defs>
<clipPath id="clip0_675_2135">
<rect width="12" height="12" fill="white" transform="matrix(0 -1 1 0 0.5 12.0303)"/>
</clipPath>
</defs>
</svg>
