<svg width="13" height="13" viewBox="0 0 13 13" fill="none" xmlns="http://www.w3.org/2000/svg">
<g clip-path="url(#clip0_675_2264)">
<path d="M0.499923 8.6149C0.499542 8.5491 0.512155 8.48386 0.537037 8.42295C0.561919 8.36203 0.598582 8.30662 0.644923 8.2599L4.72992 4.1749C4.96215 3.94208 5.23802 3.75737 5.54175 3.63134C5.84547 3.5053 6.17108 3.44043 6.49992 3.44043C6.82875 3.44043 7.15436 3.5053 7.45808 3.63134C7.76181 3.75737 8.03768 3.94208 8.26991 4.1749L12.3549 8.2599C12.4015 8.30652 12.4385 8.36186 12.4637 8.42277C12.489 8.48369 12.502 8.54897 12.502 8.6149C12.502 8.68083 12.489 8.74611 12.4637 8.80702C12.4385 8.86793 12.4015 8.92328 12.3549 8.9699C12.3083 9.01652 12.2529 9.0535 12.192 9.07873C12.1311 9.10396 12.0658 9.11694 11.9999 9.11694C11.934 9.11694 11.8687 9.10396 11.8078 9.07873C11.7469 9.0535 11.6915 9.01652 11.6449 8.9699L7.55991 4.8849C7.27866 4.604 6.89742 4.44622 6.49992 4.44622C6.10241 4.44622 5.72117 4.604 5.43992 4.8849L1.35492 8.9699C1.30844 9.01676 1.25314 9.05396 1.19221 9.07934C1.13128 9.10473 1.06593 9.1178 0.999922 9.1178C0.933916 9.1178 0.868564 9.10473 0.807633 9.07934C0.746704 9.05396 0.691404 9.01676 0.644923 8.9699C0.598582 8.92318 0.561919 8.86777 0.537037 8.80685C0.512155 8.74593 0.499542 8.6807 0.499923 8.6149Z" fill="#C5EEE9"/>
</g>
<defs>
<clipPath id="clip0_675_2264">
<rect width="12" height="12" fill="white" transform="matrix(0 1 -1 0 12.5 0.0302734)"/>
</clipPath>
</defs>
</svg>
