<svg width="12" height="24" viewBox="0 0 12 24" fill="none" xmlns="http://www.w3.org/2000/svg">
<path d="M10.6693 24.0002C10.5376 24.0009 10.4072 23.9757 10.2853 23.9259C10.1635 23.8762 10.0527 23.8028 9.95925 23.7102L1.78925 15.5402C1.32362 15.0757 0.95419 14.524 0.702125 13.9165C0.450061 13.3091 0.320312 12.6578 0.320312 12.0002C0.320312 11.3425 0.450061 10.6913 0.702125 10.0838C0.95419 9.47639 1.32362 8.92463 1.78925 8.46017L9.95925 0.290185C10.0525 0.196947 10.1632 0.122986 10.285 0.0725256C10.4068 0.0220653 10.5374 -0.00390625 10.6693 -0.00390625C10.8011 -0.00390625 10.9317 0.0220653 11.0535 0.0725256C11.1753 0.122986 11.286 0.196947 11.3792 0.290185C11.4725 0.383423 11.5465 0.494114 11.5969 0.615935C11.6474 0.737757 11.6733 0.868325 11.6733 1.00018C11.6733 1.13204 11.6474 1.26261 11.5969 1.38443C11.5465 1.50625 11.4725 1.61694 11.3792 1.71018L3.20925 9.88017C2.64745 10.4427 2.33189 11.2052 2.33189 12.0002C2.33189 12.7952 2.64745 13.5577 3.20925 14.1202L11.3792 22.2902C11.473 22.3831 11.5474 22.4937 11.5981 22.6156C11.6489 22.7374 11.675 22.8681 11.675 23.0002C11.675 23.1322 11.6489 23.2629 11.5981 23.3847C11.5474 23.5066 11.473 23.6172 11.3792 23.7102C11.2858 23.8028 11.175 23.8762 11.0532 23.9259C10.9313 23.9757 10.8009 24.0009 10.6693 24.0002Z" fill="#A2A2B5"/>
</svg>
