<svg width="7" height="13" viewBox="0 0 7 13" fill="none" xmlns="http://www.w3.org/2000/svg">
<path d="M1.41537 0.53215C1.48118 0.53177 1.54641 0.544382 1.60733 0.569264C1.66825 0.594147 1.72366 0.63081 1.77038 0.677151L5.85537 4.76214C6.08819 4.99437 6.27291 5.27025 6.39894 5.57398C6.52497 5.8777 6.58984 6.20331 6.58984 6.53214C6.58984 6.86098 6.52497 7.18658 6.39894 7.49031C6.27291 7.79403 6.08819 8.06991 5.85537 8.30214L1.77038 12.3871C1.72376 12.4338 1.66841 12.4707 1.6075 12.496C1.54659 12.5212 1.4813 12.5342 1.41537 12.5342C1.34945 12.5342 1.28416 12.5212 1.22325 12.496C1.16234 12.4707 1.10699 12.4338 1.06038 12.3871C1.01376 12.3405 0.976775 12.2852 0.951545 12.2243C0.926315 12.1633 0.913329 12.0981 0.913329 12.0321C0.913329 11.9662 0.926315 11.9009 0.951545 11.84C0.976775 11.7791 1.01376 11.7238 1.06038 11.6771L5.14537 7.59214C5.42628 7.31089 5.58405 6.92964 5.58405 6.53214C5.58405 6.13464 5.42628 5.75339 5.14537 5.47214L1.06038 1.38715C1.01351 1.34067 0.976313 1.28537 0.950929 1.22444C0.925544 1.16351 0.912476 1.09816 0.912476 1.03215C0.912476 0.966144 0.925544 0.900791 0.950929 0.839862C0.976313 0.778933 1.01351 0.723632 1.06038 0.677151C1.1071 0.63081 1.1625 0.594147 1.22342 0.569264C1.28434 0.544382 1.34957 0.53177 1.41537 0.53215Z" fill="#A2A2B5"/>
</svg>
