<svg width="35" height="35" viewBox="0 0 35 35" fill="none" xmlns="http://www.w3.org/2000/svg">
<path d="M19.8924 28.5386C20.2971 28.1776 20.918 28.1552 21.35 28.5095C21.8252 28.8993 21.8918 29.5973 21.4988 30.0686C20.5299 31.3251 19.031 32.0684 17.4361 32.0832L17.1195 32.0698C15.649 31.9631 14.2881 31.238 13.3864 30.0686L13.2906 29.9348C13.0089 29.4729 13.1032 28.8639 13.5352 28.5095C14.0104 28.1197 14.7142 28.1858 15.1072 28.6571C15.2798 28.8859 15.4846 29.089 15.7153 29.2602C16.332 29.7155 17.1064 29.9079 17.8668 29.7947C18.6271 29.6815 19.3104 29.272 19.765 28.6571H19.778L19.8924 28.5386ZM17.4491 2.9165C21.9257 2.9165 26.9458 6.07313 27.5151 11.1417V13.785C27.7095 14.7391 28.156 15.6248 28.8089 16.3514C28.8476 16.3953 28.8823 16.4425 28.9124 16.4925C29.5045 17.3837 29.8441 18.4164 29.8958 19.4823L29.8569 19.7518C29.9015 21.2106 29.4147 22.6365 28.4855 23.7682C27.2989 25.0485 25.6767 25.8484 23.9312 26.0137C19.6315 26.4857 15.2925 26.4857 10.9928 26.0137C9.2728 25.8371 7.67888 25.0376 6.51615 23.7682C5.57165 22.6527 5.07018 21.2337 5.10587 19.7775V19.5978C5.17701 18.4999 5.54335 17.441 6.16682 16.531L6.27032 16.4027C6.91872 15.673 7.36459 14.7886 7.56416 13.8364V11.193L7.6357 11.0453C7.85323 10.6705 8.27688 10.4512 8.72059 10.4992C9.21977 10.5532 9.62062 10.9321 9.69899 11.424V14.0673C9.70402 14.1143 9.70402 14.1616 9.69899 14.2085C9.42959 15.5323 8.81382 16.7625 7.91349 17.7757C7.56677 18.3235 7.37052 18.9516 7.34421 19.5978V19.8801C7.31548 20.789 7.61873 21.6776 8.19814 22.3823C9.00144 23.2052 10.0756 23.7151 11.2257 23.8195C15.3882 24.2686 19.5875 24.2686 23.75 23.8195C24.9315 23.7119 26.032 23.1777 26.8423 22.3182C27.3933 21.6301 27.6819 20.7713 27.6574 19.893V19.5978C27.6309 18.9495 27.4395 18.3183 27.1011 17.7629C26.1633 16.7612 25.5113 15.53 25.2121 14.1957C25.207 14.1487 25.207 14.1014 25.2121 14.0545V11.3983C24.8369 7.52312 20.9424 5.12357 17.5526 5.12357C16.1114 5.12029 14.6939 5.48721 13.4382 6.18861L13.2844 6.26495C12.9682 6.39263 12.6064 6.37021 12.3058 6.19692C11.955 5.99475 11.743 5.61927 11.7525 5.21703C11.762 4.81479 11.9914 4.44954 12.3513 4.26384C13.9074 3.39202 15.6619 2.92829 17.4491 2.9165Z" fill="white"/>
</svg>
