<svg width="328" height="205" viewBox="0 0 328 205" fill="none" xmlns="http://www.w3.org/2000/svg">
<g filter="url(#filter0_b_749_1222)">
<g clip-path="url(#clip0_749_1222)">
<path d="M32 204.534C16.9151 204.534 9.37258 204.534 4.68629 199.848C0 195.162 0 187.619 0 172.534L0 31.9998C0 16.9149 0 9.37237 4.68629 4.68608C9.37258 -0.000213623 16.9151 -0.000213623 32 -0.000213623H296C311.085 -0.000213623 318.627 -0.000213623 323.314 4.68608C328 9.37237 328 16.9148 328 31.9998V172.534C328 187.619 328 195.162 323.314 199.848C318.627 204.534 311.085 204.534 296 204.534H32Z" fill="#101013"/>
<circle opacity="0.5" cx="47" cy="-7.46582" r="130" transform="rotate(-90 47 -7.46582)" fill="white" fill-opacity="0.1"/>
<circle opacity="0.5" cx="303.5" cy="84.0342" r="189.5" transform="rotate(-90 303.5 84.0342)" fill="url(#paint0_linear_749_1222)" fill-opacity="0.1"/>
</g>
<path d="M0.5 172.534L0.5 31.9998C0.5 24.4432 0.501062 18.826 1.08133 14.5101C1.65966 10.2085 2.80508 7.2744 5.03984 5.03963C7.27461 2.80487 10.2087 1.65944 14.5103 1.08112C18.8262 0.500854 24.4434 0.499786 32 0.499786H296C303.557 0.499786 309.174 0.500854 313.49 1.08112C317.791 1.65944 320.725 2.80487 322.96 5.03963C325.195 7.2744 326.34 10.2085 326.919 14.5101C327.499 18.826 327.5 24.4432 327.5 31.9998V172.534C327.5 180.091 327.499 185.708 326.919 190.024C326.34 194.325 325.195 197.26 322.96 199.494C320.725 201.729 317.791 202.875 313.49 203.453C309.174 204.033 303.557 204.034 296 204.034H32C24.4434 204.034 18.8262 204.033 14.5103 203.453C10.2087 202.875 7.27461 201.729 5.03984 199.494C2.80508 197.26 1.65966 194.325 1.08133 190.024C0.501062 185.708 0.5 180.091 0.5 172.534Z" stroke="#CFCFFC" stroke-opacity="0.15"/>
</g>
<defs>
<filter id="filter0_b_749_1222" x="-10" y="-10" width="348" height="224.534" filterUnits="userSpaceOnUse" color-interpolation-filters="sRGB">
<feFlood flood-opacity="0" result="BackgroundImageFix"/>
<feGaussianBlur in="BackgroundImageFix" stdDeviation="5"/>
<feComposite in2="SourceAlpha" operator="in" result="effect1_backgroundBlur_749_1222"/>
<feBlend mode="normal" in="SourceGraphic" in2="effect1_backgroundBlur_749_1222" result="shape"/>
</filter>
<linearGradient id="paint0_linear_749_1222" x1="190" y1="-65.9658" x2="636.5" y2="264.534" gradientUnits="userSpaceOnUse">
<stop stop-color="white"/>
<stop offset="0.342546" stop-color="white" stop-opacity="0"/>
</linearGradient>
<clipPath id="clip0_749_1222">
<path d="M32 204.534C16.9151 204.534 9.37258 204.534 4.68629 199.848C0 195.162 0 187.619 0 172.534L0 31.9998C0 16.9149 0 9.37237 4.68629 4.68608C9.37258 -0.000213623 16.9151 -0.000213623 32 -0.000213623H296C311.085 -0.000213623 318.627 -0.000213623 323.314 4.68608C328 9.37237 328 16.9148 328 31.9998V172.534C328 187.619 328 195.162 323.314 199.848C318.627 204.534 311.085 204.534 296 204.534H32Z" fill="white"/>
</clipPath>
</defs>
</svg>
