<svg width="23" height="18" viewBox="0 0 23 18" fill="none" xmlns="http://www.w3.org/2000/svg">
<path d="M19.4981 17.9864C19.3996 17.9866 19.3021 17.9672 19.2111 17.9295C19.1201 17.8918 19.0375 17.8364 18.968 17.7666L2.46798 1.26658C2.33327 1.12478 2.25928 0.93597 2.26178 0.740398C2.26428 0.544827 2.34309 0.357971 2.48139 0.21967C2.61969 0.0813687 2.80655 0.00256547 3.00212 6.15385e-05C3.19769 -0.00244239 3.3865 0.0715513 3.5283 0.206266L20.0283 16.7063C20.1331 16.8112 20.2045 16.9448 20.2334 17.0902C20.2623 17.2356 20.2475 17.3864 20.1907 17.5234C20.134 17.6604 20.0379 17.7775 19.9146 17.8599C19.7914 17.9423 19.6464 17.9864 19.4981 17.9864Z" fill="white"/>
<path d="M11.235 14.9865C9.29015 14.9865 7.41469 14.4109 5.66062 13.2755C4.06359 12.2443 2.62593 10.7673 1.50281 9.00992V9.00617C2.4375 7.66695 3.46125 6.53445 4.56093 5.62133C4.57088 5.61301 4.579 5.60272 4.58477 5.59111C4.59053 5.57949 4.59383 5.56681 4.59445 5.55386C4.59506 5.54091 4.59299 5.52797 4.58835 5.51586C4.58371 5.50375 4.57661 5.49274 4.5675 5.48351L3.63375 4.55117C3.61715 4.53444 3.59487 4.52457 3.57133 4.52353C3.54779 4.52249 3.52472 4.53035 3.50672 4.54554C2.33859 5.52992 1.25437 6.73742 0.268591 8.15117C0.0989903 8.39459 0.00558437 8.68294 0.00024264 8.97958C-0.00509909 9.27621 0.0778645 9.56773 0.238591 9.81711C1.47656 11.7545 3.06984 13.3862 4.84547 14.5351C6.84468 15.8302 8.99625 16.4865 11.235 16.4865C12.4434 16.4827 13.6433 16.2836 14.7881 15.8968C14.8032 15.8917 14.8168 15.8828 14.8275 15.871C14.8382 15.8591 14.8457 15.8448 14.8493 15.8293C14.8529 15.8137 14.8525 15.7975 14.8481 15.7822C14.8437 15.7669 14.8355 15.7529 14.8242 15.7416L13.8127 14.7301C13.7894 14.7074 13.7606 14.6911 13.7291 14.6829C13.6976 14.6747 13.6645 14.6748 13.6331 14.6832C12.8497 14.8849 12.044 14.9868 11.235 14.9865Z" fill="white"/>
<path d="M22.2576 8.17266C21.0173 6.25453 19.4081 4.62516 17.6043 3.46031C15.6089 2.17031 13.4058 1.48828 11.2336 1.48828C10.038 1.4904 8.85123 1.69371 7.7231 2.08969C7.70806 2.09492 7.69461 2.10389 7.68401 2.11575C7.6734 2.12762 7.66599 2.14199 7.66247 2.15751C7.65896 2.17303 7.65945 2.1892 7.6639 2.20447C7.66836 2.21975 7.67663 2.23365 7.68794 2.24484L8.6981 3.255C8.72161 3.27812 8.75081 3.29462 8.78274 3.30285C8.81467 3.31108 8.84821 3.31074 8.87997 3.30188C9.6473 3.0943 10.4387 2.98886 11.2336 2.98828C13.1409 2.98828 15.0108 3.57094 16.7906 4.72266C18.4176 5.77266 19.8722 7.24828 20.9981 8.98828C20.9989 8.98935 20.9994 8.99067 20.9994 8.99203C20.9994 8.99339 20.9989 8.99471 20.9981 8.99578C20.1808 10.2825 19.1666 11.4329 17.9925 12.405C17.9824 12.4133 17.9742 12.4236 17.9683 12.4352C17.9625 12.4468 17.9591 12.4596 17.9585 12.4726C17.9578 12.4856 17.9599 12.4986 17.9645 12.5108C17.9691 12.5229 17.9763 12.534 17.9854 12.5433L18.9183 13.4756C18.9348 13.4923 18.9569 13.5022 18.9803 13.5033C19.0038 13.5044 19.0268 13.4967 19.0448 13.4817C20.2983 12.4263 21.3833 11.1858 22.2623 9.80297C22.4177 9.55929 22.4998 9.27613 22.499 8.98713C22.4982 8.69812 22.4144 8.41544 22.2576 8.17266Z" fill="white"/>
<path d="M11.2483 4.48828C10.9112 4.4881 10.5752 4.52584 10.2466 4.60078C10.23 4.60423 10.2146 4.61211 10.2021 4.62359C10.1897 4.63507 10.1805 4.64972 10.1757 4.66598C10.1709 4.68223 10.1706 4.69949 10.1748 4.71591C10.179 4.73233 10.1876 4.7473 10.1997 4.75922L15.4773 10.0355C15.4893 10.0475 15.5042 10.0561 15.5207 10.0603C15.5371 10.0646 15.5543 10.0642 15.5706 10.0594C15.5868 10.0546 15.6015 10.0455 15.613 10.033C15.6245 10.0205 15.6323 10.0052 15.6358 9.98859C15.786 9.32955 15.7859 8.64512 15.6354 7.98614C15.4848 7.32716 15.1878 6.71056 14.7663 6.18213C14.3447 5.6537 13.8096 5.22702 13.2006 4.93378C12.5915 4.64054 11.9242 4.48827 11.2483 4.48828Z" fill="white"/>
<path d="M7.02189 7.94188C7.00996 7.92983 6.995 7.92123 6.97858 7.91701C6.96216 7.91279 6.9449 7.9131 6.92864 7.91791C6.91239 7.92272 6.89774 7.93185 6.88626 7.94433C6.87478 7.9568 6.86689 7.97215 6.86345 7.98875C6.69345 8.73142 6.7148 9.50508 6.92549 10.2372C7.13617 10.9694 7.5293 11.6361 8.06802 12.1748C8.60674 12.7135 9.27343 13.1067 10.0056 13.3173C10.7377 13.528 11.5114 13.5494 12.2541 13.3794C12.2707 13.3759 12.286 13.368 12.2985 13.3566C12.311 13.3451 12.3201 13.3304 12.3249 13.3142C12.3297 13.2979 12.33 13.2807 12.3258 13.2643C12.3216 13.2478 12.313 13.2329 12.3009 13.2209L7.02189 7.94188Z" fill="white"/>
</svg>
