<svg width="25" height="24" viewBox="0 0 25 24" fill="none" xmlns="http://www.w3.org/2000/svg">
<path d="M12.5001 21.375C10.9582 21.3753 9.44003 20.9954 8.08009 20.2688C6.72016 19.5421 5.56043 18.4913 4.70366 17.2094C3.84688 15.9275 3.31951 14.4541 3.16826 12.9196C3.01702 11.3852 3.24656 9.83714 3.83657 8.41261C4.42657 6.98809 5.35882 5.73108 6.55072 4.75294C7.74261 3.77481 9.15736 3.10574 10.6696 2.80503C12.1819 2.50432 13.745 2.58123 15.2204 3.02897C16.6958 3.47671 18.0381 4.28144 19.1282 5.37188C19.2331 5.47639 19.3163 5.60058 19.3731 5.73733C19.4298 5.87408 19.4591 6.02068 19.4591 6.16875C19.4591 6.31682 19.4298 6.46343 19.3731 6.60017C19.3163 6.73692 19.2331 6.86111 19.1282 6.96563C18.9147 7.17295 18.6289 7.28892 18.3313 7.28892C18.0337 7.28892 17.7479 7.17295 17.5344 6.96563C16.8761 6.30043 16.0918 5.77298 15.2275 5.41404C14.3631 5.05511 13.436 4.87186 12.5001 4.875C11.1391 4.87596 9.80698 5.26664 8.66112 6.00085C7.51525 6.73506 6.60363 7.78208 6.03407 9.01806C5.4645 10.2541 5.26083 11.6273 5.44713 12.9754C5.63344 14.3235 6.20193 15.59 7.08536 16.6252C7.9688 17.6604 9.13022 18.4209 10.4323 18.8168C11.7343 19.2127 13.1225 19.2275 14.4327 18.8593C15.7428 18.4911 16.9201 17.7554 17.8253 16.7392C18.7305 15.723 19.3258 14.4688 19.5407 13.125H12.5001C12.2017 13.125 11.9155 13.0065 11.7046 12.7955C11.4936 12.5845 11.3751 12.2984 11.3751 12C11.3751 11.7016 11.4936 11.4155 11.7046 11.2045C11.9155 10.9935 12.2017 10.875 12.5001 10.875H20.7501C21.0484 10.875 21.3346 10.9935 21.5455 11.2045C21.7565 11.4155 21.8751 11.7016 21.8751 12C21.8701 14.4849 20.8808 16.8666 19.1237 18.6237C17.3666 20.3807 14.9849 21.37 12.5001 21.375Z" fill="white"/>
</svg>
