<svg width="25" height="24" viewBox="0 0 25 24" fill="none" xmlns="http://www.w3.org/2000/svg">
<path d="M8 6.75H21.5" stroke="#83839C" stroke-linecap="round" stroke-linejoin="round"/>
<path d="M8 12H21.5" stroke="#83839C" stroke-linecap="round" stroke-linejoin="round"/>
<path d="M8 17.25H21.5" stroke="#83839C" stroke-linecap="round" stroke-linejoin="round"/>
<path d="M4.25 7.5C4.66421 7.5 5 7.16421 5 6.75C5 6.33579 4.66421 6 4.25 6C3.83579 6 3.5 6.33579 3.5 6.75C3.5 7.16421 3.83579 7.5 4.25 7.5Z" stroke="#83839C" stroke-linecap="round" stroke-linejoin="round"/>
<path d="M4.25 12.75C4.66421 12.75 5 12.4142 5 12C5 11.5858 4.66421 11.25 4.25 11.25C3.83579 11.25 3.5 11.5858 3.5 12C3.5 12.4142 3.83579 12.75 4.25 12.75Z" stroke="#83839C" stroke-linecap="round" stroke-linejoin="round"/>
<path d="M4.25 18C4.66421 18 5 17.6642 5 17.25C5 16.8358 4.66421 16.5 4.25 16.5C3.83579 16.5 3.5 16.8358 3.5 17.25C3.5 17.6642 3.83579 18 4.25 18Z" stroke="#83839C" stroke-linecap="round" stroke-linejoin="round"/>
</svg>
