<svg width="25" height="25" viewBox="0 0 25 25" fill="none" xmlns="http://www.w3.org/2000/svg">
<path d="M16.25 10.25V5.79688C16.25 4.80231 15.8549 3.84849 15.1517 3.14522C14.4484 2.44196 13.4946 2.04688 12.5 2.04688C11.5054 2.04688 10.5516 2.44196 9.84835 3.14522C9.14509 3.84849 8.75 4.80231 8.75 5.79688V10.25" stroke="white" stroke-linecap="round" stroke-linejoin="round"/>
<path d="M17.75 10.25H7.25C6.00736 10.25 5 11.2574 5 12.5V20.75C5 21.9926 6.00736 23 7.25 23H17.75C18.9926 23 20 21.9926 20 20.75V12.5C20 11.2574 18.9926 10.25 17.75 10.25Z" stroke="white" stroke-linecap="round" stroke-linejoin="round"/>
</svg>
