<svg width="25" height="25" viewBox="0 0 25 25" fill="none" xmlns="http://www.w3.org/2000/svg">
<path d="M10 14.2502C10 15.2202 10.75 16.0002 11.67 16.0002H13.55C14.35 16.0002 15 15.3202 15 14.4702C15 13.5602 14.6 13.2302 14.01 13.0202L11 11.9702C10.41 11.7602 10.01 11.4402 10.01 10.5202C10.01 9.68023 10.66 8.99023 11.46 8.99023H13.34C14.26 8.99023 15.01 9.77023 15.01 10.7402" stroke="white" stroke-width="1.5" stroke-linecap="round" stroke-linejoin="round"/>
<path d="M12.5 8V17" stroke="white" stroke-width="1.5" stroke-linecap="round" stroke-linejoin="round"/>
<path d="M22.5 12.5C22.5 18.02 18.02 22.5 12.5 22.5C6.98 22.5 2.5 18.02 2.5 12.5C2.5 6.98 6.98 2.5 12.5 2.5" stroke="white" stroke-width="1.5" stroke-linecap="round" stroke-linejoin="round"/>
<path d="M22.5 6.5V2.5H18.5" stroke="white" stroke-width="1.5" stroke-linecap="round" stroke-linejoin="round"/>
<path d="M17.5 7.5L22.5 2.5" stroke="white" stroke-width="1.5" stroke-linecap="round" stroke-linejoin="round"/>
</svg>
