<svg width="22" height="23" viewBox="0 0 22 23" fill="none" xmlns="http://www.w3.org/2000/svg">
<path d="M8.70898 13.1039C8.70898 13.9931 9.3965 14.7081 10.2398 14.7081H11.9631C12.6965 14.7081 13.2923 14.0847 13.2923 13.3056C13.2923 12.4714 12.9257 12.1689 12.3848 11.9764L9.62565 11.0139C9.08482 10.8214 8.71816 10.5281 8.71816 9.68473C8.71816 8.91473 9.31398 8.28223 10.0473 8.28223H11.7706C12.614 8.28223 13.3015 8.99723 13.3015 9.88639" stroke="white" stroke-width="1.5" stroke-linecap="round" stroke-linejoin="round"/>
<path d="M11 7.375V15.625" stroke="white" stroke-width="1.5" stroke-linecap="round" stroke-linejoin="round"/>
<path d="M20.1673 11.4997C20.1673 16.5597 16.0607 20.6663 11.0007 20.6663C5.94065 20.6663 1.83398 16.5597 1.83398 11.4997C1.83398 6.43967 5.94065 2.33301 11.0007 2.33301" stroke="white" stroke-width="1.5" stroke-linecap="round" stroke-linejoin="round"/>
<path d="M15.584 3.25V6.91667H19.2507" stroke="white" stroke-width="1.5" stroke-linecap="round" stroke-linejoin="round"/>
<path d="M20.1673 2.33301L15.584 6.91634" stroke="white" stroke-width="1.5" stroke-linecap="round" stroke-linejoin="round"/>
</svg>
