<svg width="335" height="336" viewBox="0 0 335 336" fill="none" xmlns="http://www.w3.org/2000/svg">
<path d="M325.128 335.5H0.264294C0.229587 335.5 0.195219 335.492 0.163153 335.477C0.131087 335.462 0.101952 335.439 0.07741 335.411C0.052868 335.383 0.0334002 335.349 0.0201182 335.313C0.00683617 335.276 0 335.236 0 335.196C0 335.156 0.00683617 335.117 0.0201182 335.08C0.0334002 335.043 0.052868 335.01 0.07741 334.982C0.101952 334.953 0.131087 334.931 0.163153 334.916C0.195219 334.9 0.229587 334.893 0.264294 334.893H325.127C325.197 334.893 325.264 334.925 325.314 334.982C325.363 335.039 325.391 335.116 325.391 335.196C325.391 335.277 325.363 335.354 325.314 335.411C325.264 335.468 325.197 335.5 325.127 335.5H325.128Z" fill="#292A2E"/>
<g opacity="0.65">
<path d="M325.128 335.5H0.264294C0.229587 335.5 0.195219 335.492 0.163153 335.477C0.131087 335.462 0.101952 335.439 0.07741 335.411C0.052868 335.383 0.0334002 335.349 0.0201182 335.313C0.00683617 335.276 0 335.236 0 335.196C0 335.156 0.00683617 335.117 0.0201182 335.08C0.0334002 335.043 0.052868 335.01 0.07741 334.982C0.101952 334.953 0.131087 334.931 0.163153 334.916C0.195219 334.9 0.229587 334.893 0.264294 334.893H325.127C325.197 334.893 325.264 334.925 325.314 334.982C325.363 335.039 325.391 335.116 325.391 335.196C325.391 335.277 325.363 335.354 325.314 335.411C325.264 335.468 325.197 335.5 325.127 335.5H325.128Z" fill="#292A2E"/>
</g>
<path d="M22.8822 334.967L22.1406 334.803L33.7303 202.428L34.4718 202.592L22.8822 334.967Z" fill="#1E1E1E"/>
<path d="M66.0365 334.967L65.2949 334.803L76.8846 202.428L77.6257 202.592L66.0365 334.967Z" fill="#1E1E1E"/>
<path d="M161.427 334.965L162.169 334.801L150.579 202.426L149.838 202.59L161.427 334.965Z" fill="#1E1E1E"/>
<path d="M118.273 334.965L119.014 334.801L107.425 202.426L106.684 202.59L118.273 334.965Z" fill="#1E1E1E"/>
<path d="M102.903 144.166L102.154 144.281L108.925 202.566L109.673 202.451L102.903 144.166Z" fill="#494949"/>
<path d="M25.1899 144.166L24.4414 144.281L31.2118 202.566L31.9603 202.451L25.1899 144.166Z" fill="#1E1E1E"/>
<path d="M109.611 198.238H33.6C31.5492 198.238 29.8867 200.149 29.8867 202.506V202.507C29.8867 204.864 31.5492 206.775 33.6 206.775H109.611C111.662 206.775 113.324 204.864 113.324 202.507V202.506C113.324 200.149 111.662 198.238 109.611 198.238Z" fill="#292A2E"/>
<path opacity="0.8" d="M109.611 198.238H33.6C31.5492 198.238 29.8867 200.149 29.8867 202.506V202.507C29.8867 204.864 31.5492 206.775 33.6 206.775H109.611C111.662 206.775 113.324 204.864 113.324 202.507V202.506C113.324 200.149 111.662 198.238 109.611 198.238Z" fill="#4E4E61"/>
<path d="M109.608 207.209H33.5988C32.5206 207.197 31.4901 206.697 30.7313 205.816C29.9725 204.936 29.5469 203.746 29.5469 202.507C29.5469 201.268 29.9725 200.078 30.7313 199.198C31.4901 198.317 32.5206 197.817 33.5988 197.805H109.608C110.686 197.817 111.717 198.317 112.476 199.198C113.235 200.078 113.66 201.268 113.66 202.507C113.66 203.746 113.235 204.936 112.476 205.816C111.717 206.697 110.686 207.197 109.608 207.209ZM33.5988 198.673C32.7202 198.683 31.8808 199.092 31.2628 199.81C30.6448 200.528 30.2982 201.497 30.2982 202.507C30.2982 203.517 30.6448 204.486 31.2628 205.204C31.8808 205.922 32.7202 206.331 33.5988 206.341H109.608C110.487 206.331 111.326 205.922 111.944 205.204C112.562 204.486 112.909 203.517 112.909 202.507C112.909 201.497 112.562 200.528 111.944 199.81C111.326 199.092 110.487 198.683 109.608 198.673H33.5988Z" fill="#292A2E"/>
<path d="M151.33 198.238H75.3188C73.268 198.238 71.6055 200.149 71.6055 202.506V202.507C71.6055 204.864 73.268 206.775 75.3188 206.775H151.33C153.381 206.775 155.043 204.864 155.043 202.507V202.506C155.043 200.149 153.381 198.238 151.33 198.238Z" fill="#4E4E61"/>
<path d="M151.329 207.21H75.3181C74.7775 207.215 74.2413 207.098 73.7404 206.865C73.2395 206.631 72.7838 206.286 72.3997 205.848C72.0157 205.411 71.7108 204.891 71.5027 204.317C71.2946 203.744 71.1875 203.129 71.1875 202.507C71.1875 201.886 71.2946 201.271 71.5027 200.697C71.7108 200.124 72.0157 199.603 72.3997 199.166C72.7838 198.729 73.2395 198.383 73.7404 198.15C74.2413 197.916 74.7775 197.799 75.3181 197.805H151.329C151.87 197.799 152.406 197.916 152.907 198.15C153.408 198.383 153.863 198.729 154.247 199.166C154.631 199.603 154.936 200.124 155.144 200.697C155.352 201.271 155.46 201.886 155.46 202.507C155.46 203.129 155.352 203.744 155.144 204.317C154.936 204.891 154.631 205.411 154.247 205.848C153.863 206.286 153.408 206.631 152.907 206.865C152.406 207.098 151.87 207.215 151.329 207.21ZM75.3181 198.673C74.877 198.667 74.4394 198.763 74.0305 198.953C73.6217 199.143 73.2497 199.425 72.9362 199.781C72.6226 200.138 72.3737 200.562 72.2038 201.03C72.0339 201.498 71.9464 202 71.9464 202.507C71.9464 203.014 72.0339 203.516 72.2038 203.984C72.3737 204.452 72.6226 204.876 72.9362 205.233C73.2497 205.59 73.6217 205.871 74.0305 206.062C74.4394 206.252 74.877 206.347 75.3181 206.342H151.329C151.77 206.347 152.208 206.252 152.617 206.062C153.025 205.871 153.397 205.59 153.711 205.233C154.025 204.876 154.273 204.452 154.443 203.984C154.613 203.516 154.701 203.014 154.701 202.507C154.701 202 154.613 201.498 154.443 201.03C154.273 200.562 154.025 200.138 153.711 199.781C153.397 199.425 153.025 199.143 152.617 198.953C152.208 198.763 151.77 198.667 151.329 198.673H75.3181Z" fill="#292A2E"/>
<path d="M98.7367 144.222H25.0187C23.8134 144.222 22.6494 143.717 21.7439 142.803C20.8383 141.889 20.2531 140.628 20.0975 139.254L15.2213 96.2125C15.1301 95.408 15.1893 94.5903 15.3949 93.8141C15.6005 93.038 15.9478 92.3212 16.4136 91.7115C16.8794 91.1019 17.453 90.6135 18.0961 90.279C18.7391 89.9444 19.4369 89.7714 20.1428 89.7715H93.8605C95.0657 89.7715 96.2297 90.2756 97.1352 91.1897C98.0408 92.1038 98.626 93.3655 98.7816 94.7392L103.658 137.781C103.749 138.585 103.69 139.403 103.484 140.179C103.279 140.955 102.931 141.672 102.465 142.281C102 142.891 101.426 143.379 100.783 143.714C100.14 144.048 99.4425 144.222 98.7367 144.222Z" fill="#292A2E"/>
<path opacity="0.8" d="M98.7367 144.222H25.0187C23.8134 144.222 22.6494 143.717 21.7439 142.803C20.8383 141.889 20.2531 140.628 20.0975 139.254L15.2213 96.2125C15.1301 95.408 15.1893 94.5903 15.3949 93.8141C15.6005 93.038 15.9478 92.3212 16.4136 91.7115C16.8794 91.1019 17.453 90.6135 18.0961 90.279C18.7391 89.9444 19.4369 89.7714 20.1428 89.7715H93.8605C95.0657 89.7715 96.2297 90.2756 97.1352 91.1897C98.0408 92.1038 98.626 93.3655 98.7816 94.7392L103.658 137.781C103.749 138.585 103.69 139.403 103.484 140.179C103.279 140.955 102.931 141.672 102.465 142.281C102 142.891 101.426 143.379 100.783 143.714C100.14 144.048 99.4425 144.222 98.7367 144.222Z" fill="#4E4E61"/>
<path d="M98.7374 144.657H25.0194C23.7234 144.654 22.4725 144.11 21.4986 143.127C20.5248 142.144 19.8941 140.789 19.7237 139.312L14.8475 96.2708C14.7494 95.4051 14.813 94.5253 15.0343 93.6901C15.2555 92.8549 15.6292 92.0836 16.1304 91.4276C16.6317 90.7716 17.2488 90.246 17.9408 89.886C18.6328 89.526 19.3836 89.3398 20.1432 89.3398H93.8612C95.1574 89.3432 96.4085 89.8869 97.3825 90.87C98.3564 91.8532 98.987 93.209 99.1573 94.6859L104.033 137.727C104.131 138.593 104.068 139.472 103.846 140.308C103.625 141.143 103.251 141.914 102.75 142.57C102.249 143.226 101.632 143.751 100.94 144.112C100.248 144.472 99.497 144.658 98.7374 144.658V144.657ZM20.1432 90.2069C19.491 90.2069 18.8464 90.3668 18.2523 90.676C17.6582 90.9851 17.1283 91.4364 16.698 91.9996C16.2677 92.5628 15.9468 93.2251 15.7569 93.9422C15.567 94.6593 15.5123 95.4147 15.5966 96.158L20.4724 139.199C20.6187 140.467 21.1602 141.631 21.9963 142.475C22.8325 143.319 23.9066 143.786 25.0194 143.789H98.7374C99.3897 143.789 100.034 143.629 100.629 143.32C101.223 143.011 101.753 142.559 102.183 141.996C102.614 141.433 102.934 140.77 103.124 140.053C103.314 139.336 103.369 138.58 103.284 137.837L98.4082 94.7957C98.2619 93.5279 97.7204 92.364 96.8842 91.5201C96.048 90.6763 94.9739 90.2097 93.8612 90.2069H20.1432Z" fill="#292A2E"/>
<path d="M102.905 144.222H29.1869C27.9816 144.222 26.8176 143.717 25.9119 142.803C25.0063 141.889 24.421 140.628 24.2654 139.254L19.3891 96.2125C19.2981 95.408 19.3573 94.5904 19.563 93.8143C19.7687 93.0382 20.116 92.3214 20.5817 91.7118C21.0475 91.1022 21.6211 90.6139 22.2641 90.2793C22.9071 89.9447 23.6048 89.7716 24.3107 89.7715H98.0287C99.2339 89.7715 100.398 90.2756 101.304 91.1897C102.209 92.1038 102.795 93.3654 102.95 94.7392L107.826 137.781C107.917 138.585 107.858 139.403 107.653 140.179C107.447 140.955 107.1 141.672 106.634 142.281C106.168 142.891 105.594 143.379 104.951 143.714C104.308 144.048 103.611 144.221 102.905 144.222Z" fill="#4E4E61"/>
<path d="M102.905 144.657H29.1874C27.8914 144.654 26.6404 144.11 25.6665 143.127C24.6926 142.144 24.062 140.789 23.8917 139.312L19.0154 96.2708C18.9173 95.4051 18.981 94.5253 19.2023 93.6901C19.4235 92.8549 19.7972 92.0836 20.2984 91.4276C20.7996 90.7716 21.4168 90.246 22.1088 89.886C22.8008 89.526 23.5516 89.3398 24.3111 89.3398H98.0292C99.3253 89.3431 100.576 89.8868 101.55 90.87C102.524 91.8531 103.155 93.209 103.325 94.6859L108.201 137.727C108.299 138.593 108.236 139.472 108.014 140.308C107.793 141.143 107.419 141.914 106.918 142.57C106.417 143.226 105.8 143.752 105.108 144.112C104.416 144.472 103.665 144.658 102.905 144.658V144.657ZM24.3111 90.2069C23.659 90.2069 23.0143 90.3668 22.4202 90.676C21.8261 90.9851 21.2962 91.4364 20.8658 91.9996C20.4355 92.5628 20.1146 93.2251 19.9246 93.9422C19.7347 94.6593 19.68 95.4147 19.7642 96.158L24.6404 139.199C24.7865 140.467 25.3279 141.631 26.1641 142.476C27.0003 143.32 28.0745 143.786 29.1874 143.789H102.905C103.558 143.789 104.202 143.629 104.797 143.32C105.391 143.011 105.921 142.56 106.351 141.996C106.782 141.433 107.103 140.77 107.293 140.053C107.483 139.336 107.537 138.58 107.453 137.837L102.577 94.7957C102.43 93.5277 101.889 92.3636 101.053 91.5194C100.217 90.6753 99.1424 90.2085 98.0295 90.2056L24.3111 90.2069Z" fill="#292A2E"/>
<path d="M206.873 312.826C206.873 312.826 208.898 324.888 218.723 325.56C228.548 326.232 226.417 335.229 226.417 335.229H188.871V313.667L206.873 312.826Z" fill="#0E0E12"/>
<path d="M135.442 305.209C135.442 305.209 132.627 317.059 141.185 322.647C149.743 328.236 144.376 335.227 144.376 335.227L110.686 316.175L118.966 296.828L135.442 305.209Z" fill="#0E0E12"/>
<path d="M105.211 24.1574C105.211 24.1574 110.109 19.9075 111.323 10.1249C112.263 2.55036 106.184 7.45729 106.184 7.45729C106.184 7.45729 106.815 1.99618 103.352 2.53778C99.89 3.07937 97.9531 8.81736 97.9531 8.81736" fill="#232429"/>
<path d="M85.4595 3.17773C85.4595 3.17773 68.2823 5.29466 74.4917 32.0482L76.0118 32.1649L79.0972 32.4027" fill="#232429"/>
<path d="M102.333 59.9877C102.258 59.9764 101.42 75.9579 85.2651 74.5657C74.0817 73.6031 70.0943 59.9651 69.8379 59.9651C71.0438 59.6705 72.5337 59.2235 73.1261 59.0698C74.4167 58.7255 75.5855 57.9376 76.477 56.8111C77.3685 55.6845 77.9404 54.2727 78.1167 52.7634C78.4441 50.498 77.8902 38.9075 78.0597 36.6152L95.2263 41.0196C94.9866 45.8606 93.3076 57.0835 99.1908 59.0698C100.171 59.3984 101.226 59.7004 102.333 59.9877Z" fill="#E98862"/>
<path opacity="0.52" d="M95.4676 54.4825C95.1987 53.4865 95.0255 52.4597 94.9511 51.4204C94.7627 49.0485 94.8006 46.66 95.0644 44.2976C91.5752 43.7562 88.2881 42.1009 85.5766 39.5195C85.2579 40.8727 83.5049 46.7851 83.9908 48.0714C84.9064 50.5021 89.217 54.4825 95.4676 54.4825Z" fill="#232429"/>
<path d="M91.9234 51.3177C85.1507 50.6194 77.0448 45.7012 76.9281 35.1344L76.8224 25.6005C76.7058 15.0337 81.4393 6.39722 90.0953 6.27093C98.7509 6.14421 105.316 14.6158 105.432 25.1821L105.479 29.403C105.473 30.8526 105.381 32.3001 105.204 33.7353C104.76 37.5326 104.071 43.3057 101.83 47.2115C99.7122 50.898 96.2499 51.7638 91.9234 51.3177Z" fill="#E98862"/>
<path d="M95.0663 41.6608C96.4638 41.7337 97.8567 41.4279 99.1326 40.7681C99.159 40.7552 99.1829 40.7364 99.203 40.7129C99.223 40.6893 99.2388 40.6615 99.2495 40.6309C99.2602 40.6003 99.2656 40.5676 99.2653 40.5346C99.265 40.5017 99.259 40.4691 99.2478 40.4388C99.2365 40.4084 99.2202 40.381 99.1997 40.3579C99.1792 40.3348 99.1549 40.3167 99.1283 40.3044C99.1017 40.2921 99.0733 40.2859 99.0446 40.2863C99.0159 40.2866 98.9876 40.2935 98.9612 40.3064C96.2125 41.6539 93.7165 41.4564 91.7433 39.7357C91.7035 39.6996 91.662 39.6658 91.6191 39.6346C91.5695 39.6082 91.5131 39.6041 91.461 39.6231C91.4089 39.6421 91.3649 39.6829 91.3377 39.7373C91.3104 39.7918 91.3019 39.856 91.3138 39.9173C91.3258 39.9786 91.3572 40.0326 91.402 40.0686C91.4179 40.0799 91.4432 40.1029 91.4775 40.1346C92.5149 41.0427 93.7645 41.5741 95.0663 41.6608Z" fill="#232429"/>
<path d="M95.001 44.0415C95.2535 44.0596 95.5069 44.0526 95.7584 44.0206C95.816 44.0136 95.8688 43.9806 95.9052 43.9288C95.9416 43.8771 95.9586 43.8108 95.9525 43.7446C95.9464 43.6784 95.9176 43.6178 95.8726 43.5759C95.8276 43.5341 95.7699 43.5145 95.7123 43.5216C94.1994 43.7064 93.4775 42.9097 93.447 42.8754C93.4056 42.8304 93.3507 42.8058 93.2938 42.8067C93.2369 42.8076 93.1825 42.8339 93.1422 42.8801C93.102 42.9263 93.079 42.9888 93.0781 43.0542C93.0773 43.1196 93.0987 43.1828 93.1377 43.2304C93.6588 43.7398 94.3171 44.0263 95.001 44.0415Z" fill="#232429"/>
<path d="M102.574 31.4374C103.163 31.4374 103.64 30.8887 103.64 30.2119C103.64 29.535 103.163 28.9863 102.574 28.9863C101.985 28.9863 101.508 29.535 101.508 30.2119C101.508 30.8887 101.985 31.4374 102.574 31.4374Z" fill="#232429"/>
<path d="M92.158 30.6855C92.7469 30.6855 93.2243 30.1368 93.2243 29.4599C93.2243 28.7831 92.7469 28.2344 92.158 28.2344C91.5692 28.2344 91.0918 28.7831 91.0918 29.4599C91.0918 30.1368 91.5692 30.6855 92.158 30.6855Z" fill="#232429"/>
<path d="M77.5031 38.3491C74.8727 38.3877 72.7047 35.1841 72.6703 32.1606C72.636 29.1371 74.7507 27.439 77.3812 27.4004L78.7589 29.4062L79.764 38.3161L77.5031 38.3491Z" fill="#E98862"/>
<path d="M80.1179 33.4924C80.1179 33.4924 81.0063 18.5408 84.9507 17.6177C87.5778 17.0028 93.9484 21.2857 99.849 19.992C102.431 19.4278 104.882 20.1608 105.131 21.5621C105.229 22.1172 106.838 14.1412 102.795 8.08987C99.5764 3.27278 89.0431 1.91011 84.2511 3.48977C70.9824 7.86507 76.8377 28.0604 76.8377 28.0604L77.4293 33.2147L80.1179 33.4924Z" fill="#232429"/>
<path d="M96.6556 38.1343C96.6613 38.1348 96.667 38.1348 96.6726 38.1343C97.5202 38.1244 98.941 37.9994 98.9353 37.2703C98.9297 36.6662 97.4345 30.164 97.2635 29.4245C97.2446 29.3669 97.2078 29.3194 97.1602 29.2912C97.1126 29.263 97.0575 29.2562 97.0058 29.272C96.954 29.2879 96.9092 29.3253 96.8801 29.377C96.851 29.4286 96.8396 29.4909 96.8482 29.5517C97.5123 32.4315 98.5015 36.865 98.5057 37.2764C98.4237 37.45 97.5482 37.6283 96.6703 37.6388C96.615 37.6401 96.5622 37.6659 96.5229 37.7107C96.4836 37.7555 96.4607 37.8159 96.4591 37.8795C96.4574 37.9432 96.4771 38.0051 96.514 38.0525C96.551 38.0999 96.6023 38.1292 96.6575 38.1343H96.6556Z" fill="#232429"/>
<path d="M99.5486 23.5688C100.439 23.287 101.38 23.287 102.271 23.5688C102.708 23.704 103.126 23.9141 103.509 24.192C103.888 24.4641 104.236 24.7901 104.543 25.1624C104.602 25.228 104.637 25.3176 104.639 25.412C104.641 25.5063 104.611 25.5979 104.555 25.6672C104.499 25.7364 104.422 25.7777 104.34 25.7823C104.258 25.7869 104.178 25.7544 104.116 25.6918L104.097 25.6727C103.812 25.3695 103.495 25.1086 103.153 24.8963C102.818 24.6852 102.457 24.5338 102.082 24.4472C101.344 24.2689 100.579 24.318 99.8631 24.5895L99.8329 24.6017C99.7148 24.6497 99.585 24.6418 99.4719 24.5797C99.3589 24.5176 99.2719 24.4065 99.2301 24.2708C99.1884 24.135 99.1953 23.9857 99.2492 23.8558C99.3032 23.7259 99.3999 23.6259 99.518 23.5779L99.5486 23.5688Z" fill="#232429"/>
<path d="M93.2427 24.184C92.5648 23.8054 91.812 23.6394 91.0604 23.7028C90.6789 23.7313 90.3033 23.8261 89.9465 23.984C89.5839 24.1423 89.2399 24.3522 88.9226 24.6089L88.9022 24.6245C88.8341 24.6747 88.7518 24.6928 88.6724 24.675C88.593 24.6572 88.5226 24.605 88.4758 24.5291C88.4291 24.4533 88.4096 24.3596 88.4213 24.2676C88.4331 24.1756 88.4752 24.0924 88.539 24.0352C88.8873 23.7134 89.2695 23.4434 89.6766 23.2315C90.0888 23.0151 90.5268 22.8709 90.9762 22.8036C91.4262 22.7309 91.8828 22.7296 92.3331 22.7997C92.7953 22.8657 93.247 23.007 93.6746 23.2193C93.7898 23.2769 93.8803 23.3846 93.9263 23.5189C93.9724 23.6532 93.9701 23.803 93.92 23.9354C93.87 24.0677 93.7762 24.1718 93.6594 24.2247C93.5425 24.2776 93.4122 24.275 93.297 24.2174C93.2884 24.2131 93.2793 24.2083 93.271 24.2031L93.2427 24.184Z" fill="#232429"/>
<path d="M98.2816 13.2751C100.229 12.8076 101.322 9.75825 100.723 6.46432C100.124 3.17039 98.0604 0.879171 96.1133 1.34674C94.1663 1.81432 93.0733 4.86362 93.672 8.15755C94.2708 11.4515 96.3345 13.7427 98.2816 13.2751Z" fill="#232429"/>
<path d="M114.576 301.866L142.987 198.845H91.4878C81.1426 198.845 76.8301 188.762 76.8301 176.872C76.8301 164.982 87.0001 154.559 97.3446 154.559H166.85C173.16 154.559 180.234 158.994 183.697 165.056C187.16 171.119 186.224 180.513 183.715 187.168L138.219 314.177" fill="#222A40"/>
<path opacity="0.8" d="M114.576 301.866L142.987 198.845H91.4878C81.1426 198.845 76.8301 188.762 76.8301 176.872C76.8301 164.982 87.0001 154.559 97.3446 154.559H166.85C173.16 154.559 180.234 158.994 183.697 165.056C187.16 171.119 186.224 180.513 183.715 187.168L138.219 314.177" fill="#161B28"/>
<path d="M186.713 324.03L139.207 198.845L76.8301 198.84C62.2143 197.523 55.5205 188.316 55.7334 176.429C55.9434 164.692 61.1137 153.1 71.2788 153.1H155.352C162.873 153.278 168.79 162.831 171.58 170.86L211.073 316.366" fill="#222A40"/>
<path d="M51.4793 153.243C51.4793 153.243 48.7091 174.007 53.1002 185.551C58.582 199.963 79.132 198.84 79.132 198.84L77.974 153.1L51.4793 153.243Z" fill="#222A40"/>
<path d="M173.366 152.831L129.304 142.337C127.468 141.9 125.758 140.937 124.331 139.539C122.905 138.14 121.808 136.35 121.143 134.335L103.813 81.845C103.285 80.2697 103.034 78.5901 103.072 76.9026C103.111 75.2151 103.439 73.5531 104.039 72.0119C104.638 70.4708 105.496 69.0809 106.564 67.9221C107.632 66.7633 108.889 65.8585 110.262 65.2595C111.635 64.6606 113.097 64.3794 114.565 64.432C116.033 64.4847 117.477 64.8702 118.815 65.5663C120.153 66.2625 121.358 67.2556 122.361 68.4887C123.364 69.7218 124.146 71.1705 124.66 72.7516L139.82 118.666L177.892 127.733C177.892 127.733 174.13 153.013 173.366 152.831Z" fill="#7768D8"/>
<path d="M122.403 95.1777C121.895 102.049 118.288 144.915 117.797 153.379H51.5061C51.1251 145.745 49.4147 112.368 47.9706 97.4395C46.5917 83.1961 44.659 76.7143 46.247 72.2878C49.0477 64.4811 57.9628 60.9945 64 60.0554C67.6861 59.4817 73.2306 59.0703 73.2306 59.0703C73.2306 59.0703 73.7003 69.986 84.8943 70.5936C100.132 71.4181 99.1149 59.0703 99.1904 59.0703C101.659 59.0703 115.096 61.1338 118.456 63.6509C123.202 67.2064 124.605 72.0513 124.66 76.503C124.724 81.6282 122.98 87.3831 122.403 95.1777Z" fill="#7768D8"/>
<path d="M119.798 130.203H119.783C119.758 130.201 119.734 130.193 119.712 130.18C119.69 130.167 119.67 130.149 119.654 130.127C119.638 130.106 119.626 130.08 119.618 130.053C119.611 130.026 119.608 129.998 119.61 129.969L121.331 106.207C121.332 106.179 121.339 106.151 121.35 106.125C121.361 106.099 121.377 106.077 121.396 106.058C121.415 106.039 121.437 106.026 121.461 106.017C121.485 106.009 121.51 106.006 121.534 106.009C121.559 106.011 121.583 106.019 121.605 106.032C121.627 106.045 121.647 106.063 121.663 106.085C121.679 106.107 121.691 106.132 121.699 106.159C121.706 106.186 121.709 106.215 121.707 106.243L119.986 130.005C119.982 130.059 119.961 130.109 119.926 130.146C119.891 130.183 119.846 130.203 119.798 130.203Z" fill="#232429"/>
<path d="M130.456 148.667L145.001 97.2748C145.257 96.3717 145.754 95.5848 146.423 95.0267C147.091 94.4686 147.896 94.168 148.723 94.168H207.982C208.6 94.1679 209.209 94.336 209.759 94.6584C210.309 94.9807 210.785 95.4483 211.148 96.0228C211.511 96.5973 211.751 97.2624 211.847 97.9637C211.944 98.6651 211.895 99.3827 211.703 100.058L197.158 151.45C196.903 152.353 196.405 153.14 195.736 153.698C195.068 154.256 194.263 154.557 193.437 154.557H134.177C133.56 154.557 132.951 154.389 132.4 154.067C131.85 153.744 131.374 153.277 131.011 152.702C130.648 152.128 130.408 151.463 130.312 150.761C130.215 150.06 130.265 149.342 130.456 148.667Z" fill="#292A2E"/>
<path opacity="0.2" d="M130.456 148.667L145.001 97.2748C145.257 96.3717 145.754 95.5848 146.423 95.0267C147.091 94.4686 147.896 94.168 148.723 94.168H207.982C208.6 94.1679 209.209 94.336 209.759 94.6584C210.309 94.9807 210.785 95.4483 211.148 96.0228C211.511 96.5973 211.751 97.2624 211.847 97.9637C211.944 98.6651 211.895 99.3827 211.703 100.058L197.158 151.45C196.903 152.353 196.405 153.14 195.736 153.698C195.068 154.256 194.263 154.557 193.437 154.557H134.177C133.56 154.557 132.951 154.389 132.4 154.067C131.85 153.744 131.374 153.277 131.011 152.702C130.648 152.128 130.408 151.463 130.312 150.761C130.215 150.06 130.265 149.342 130.456 148.667Z" fill="white"/>
<path d="M142.321 150.391H102.653C101.665 150.391 100.863 151.312 100.863 152.448V152.501C100.863 153.637 101.665 154.558 102.653 154.558H142.321C143.31 154.558 144.111 153.637 144.111 152.501V152.448C144.111 151.312 143.31 150.391 142.321 150.391Z" fill="#292A2E"/>
<path opacity="0.2" d="M142.321 150.391H102.653C101.665 150.391 100.863 151.312 100.863 152.448V152.501C100.863 153.637 101.665 154.558 102.653 154.558H142.321C143.31 154.558 144.111 153.637 144.111 152.501V152.448C144.111 151.312 143.31 150.391 142.321 150.391Z" fill="white"/>
<path d="M171.078 134.012C174.511 134.012 177.293 130.814 177.293 126.868C177.293 122.923 174.511 119.725 171.078 119.725C167.646 119.725 164.863 122.923 164.863 126.868C164.863 130.814 167.646 134.012 171.078 134.012Z" fill="white"/>
<path d="M123.008 85.5977H107.25V107.81H123.008V85.5977Z" fill="white"/>
<path d="M107.25 104.121C105.974 104.121 104.726 103.686 103.665 102.871C102.604 102.056 101.776 100.898 101.288 99.5425C100.8 98.1872 100.672 96.6959 100.921 95.2571C101.17 93.8184 101.784 92.4968 102.687 91.4595C103.589 90.4222 104.739 89.7158 105.991 89.4296C107.243 89.1434 108.54 89.2903 109.719 89.8517C110.898 90.4131 111.906 91.3637 112.615 92.5835C113.324 93.8032 113.703 95.2372 113.703 96.7041C113.701 98.6706 113.02 100.556 111.811 101.946C110.601 103.337 108.961 104.119 107.25 104.121ZM107.25 92.3254C106.496 92.3254 105.76 92.5822 105.133 93.0634C104.506 93.5446 104.018 94.2286 103.73 95.0288C103.441 95.829 103.366 96.7096 103.513 97.5591C103.66 98.4086 104.023 99.1889 104.556 99.8013C105.089 100.414 105.768 100.831 106.507 101C107.246 101.169 108.012 101.082 108.708 100.75C109.404 100.419 109.999 99.8574 110.418 99.1372C110.836 98.417 111.06 97.5703 111.06 96.7041C111.059 95.5431 110.657 94.4299 109.943 93.609C109.228 92.788 108.26 92.3264 107.25 92.3254Z" fill="white"/>
<path d="M108.157 99.9967C108.013 99.5676 107.743 99.2104 107.393 98.9875C107.043 98.7646 106.636 98.6903 106.244 98.7776C106.251 98.7568 106.255 98.7346 106.255 98.7121L106.784 98.4404C107.154 98.2595 107.459 97.937 107.646 97.5276C107.833 97.1182 107.892 96.647 107.811 96.1938C107.756 95.9108 107.646 95.6455 107.491 95.417C107.335 95.1886 107.138 95.0026 106.912 94.8725C106.687 94.7425 106.439 94.6716 106.186 94.6649C105.934 94.6583 105.684 94.7161 105.453 94.8341L104.206 95.4751C104.206 95.4695 104.206 95.4638 104.204 95.4582C104.199 95.4467 104.193 95.4359 104.186 95.4261C104.493 95.16 104.712 94.7821 104.809 94.3541C104.905 93.926 104.872 93.4731 104.716 93.0692C104.37 91.9925 103.143 91.9066 102.331 92.3227L99.0715 93.8343L100.055 92.6873C100.364 92.3133 100.537 91.8187 100.54 91.3036C100.543 90.7884 100.376 90.2911 100.073 89.912C99.91 89.7227 99.7154 89.5735 99.5008 89.4736C99.2862 89.3736 99.0562 89.3249 98.8247 89.3305C98.5932 89.3361 98.3651 89.3959 98.1544 89.5062C97.9436 89.6164 97.7547 89.7749 97.599 89.9719L86.0078 104.522L89.9722 108.91C91.2032 110.274 92.7603 111.183 94.4439 111.522C96.1275 111.861 97.8609 111.615 99.4219 110.814L106.487 107.174C106.857 106.993 107.162 106.67 107.349 106.261C107.536 105.851 107.595 105.38 107.514 104.927C107.434 104.52 107.243 104.153 106.969 103.88C106.694 103.607 106.351 103.442 105.99 103.408C105.994 103.386 105.994 103.362 105.99 103.34C105.986 103.317 105.978 103.296 105.967 103.277C105.956 103.258 105.942 103.241 105.925 103.229C105.908 103.216 105.89 103.207 105.87 103.203L107.174 102.534C107.587 102.333 107.919 101.959 108.101 101.488C108.283 101.017 108.303 100.484 108.157 99.9967Z" fill="#E98862"/>
<path opacity="0.2" d="M101.85 96.7062C101.813 96.7064 101.777 96.6916 101.748 96.6642C101.719 96.6369 101.699 96.5989 101.692 96.5566C101.685 96.5144 101.691 96.4707 101.709 96.4331C101.728 96.3955 101.757 96.3664 101.791 96.3508L103.996 95.3527C104.016 95.3438 104.037 95.3395 104.058 95.3399C104.079 95.3403 104.1 95.3455 104.119 95.3551C104.138 95.3647 104.156 95.3786 104.17 95.396C104.185 95.4134 104.196 95.4339 104.204 95.4564C104.212 95.4789 104.215 95.5029 104.215 95.527C104.215 95.5512 104.21 95.575 104.202 95.5972C104.193 95.6194 104.181 95.6394 104.166 95.6562C104.151 95.673 104.133 95.6862 104.114 95.6951L101.909 96.6932C101.89 96.7017 101.87 96.7061 101.85 96.7062Z" fill="#232429"/>
<path opacity="0.2" d="M103.08 100.292C103.042 100.292 103.007 100.277 102.978 100.25C102.949 100.223 102.93 100.185 102.923 100.143C102.916 100.102 102.922 100.058 102.939 100.021C102.957 99.9832 102.986 99.9539 103.02 99.9379L106.036 98.5436C106.075 98.5279 106.117 98.5301 106.155 98.5496C106.193 98.5692 106.222 98.6046 106.237 98.6486C106.253 98.6925 106.253 98.7416 106.238 98.7856C106.222 98.8296 106.193 98.865 106.155 98.8847L103.14 100.279C103.12 100.288 103.1 100.292 103.08 100.292Z" fill="#232429"/>
<path opacity="0.2" d="M104.396 104.18C104.359 104.18 104.323 104.165 104.294 104.137C104.265 104.109 104.246 104.071 104.239 104.029C104.232 103.986 104.239 103.942 104.257 103.905C104.276 103.867 104.305 103.839 104.34 103.823L105.778 103.203C105.818 103.186 105.862 103.188 105.901 103.208C105.939 103.228 105.969 103.265 105.984 103.31C106 103.356 105.998 103.407 105.981 103.451C105.963 103.496 105.931 103.531 105.891 103.548L104.453 104.168C104.435 104.176 104.416 104.18 104.396 104.18Z" fill="#232429"/>
<path d="M111.508 71.4681C111.438 71.4682 111.37 71.4461 111.311 71.4045C111.251 71.3628 111.203 71.3031 111.171 71.232C110.312 69.3056 109.242 66.9075 109.363 64.3935C109.459 62.3941 110.274 60.6179 111.062 58.9024C111.571 57.8655 112.005 56.7821 112.359 55.6632C112.791 54.1194 112.9 52.4801 112.677 50.8787C112.454 49.2773 111.905 47.759 111.075 46.4474C111.044 46.4017 111.021 46.3493 111.008 46.2934C110.995 46.2374 110.992 46.1789 110.998 46.1215C111.005 46.064 111.022 46.0087 111.048 45.9588C111.073 45.9089 111.108 45.8655 111.148 45.831C111.189 45.7966 111.235 45.7718 111.284 45.7582C111.333 45.7446 111.384 45.7424 111.434 45.7518C111.484 45.7612 111.531 45.782 111.574 45.8129C111.617 45.8438 111.653 45.8843 111.682 45.9318C112.584 47.3552 113.18 49.003 113.423 50.7413C113.666 52.4796 113.548 54.2592 113.079 55.9353C112.713 57.1004 112.262 58.2284 111.733 59.3077C110.948 61.0171 110.206 62.6315 110.119 64.4416C110.01 66.7204 110.985 68.9072 111.846 70.8362C111.875 70.9023 111.889 70.976 111.887 71.0503C111.885 71.1245 111.866 71.1968 111.832 71.2603C111.798 71.3237 111.751 71.3761 111.695 71.4125C111.638 71.4488 111.575 71.468 111.51 71.4681H111.508Z" fill="#83839C"/>
<path d="M117.569 78.241C117.486 78.241 117.404 78.209 117.338 78.1501C117.272 78.0912 117.225 78.0087 117.204 77.9155C117.183 77.8224 117.19 77.7239 117.223 77.6355C117.256 77.5471 117.313 77.4739 117.387 77.4273C118.786 76.5403 118.943 74.0714 118.285 72.1971C117.959 71.3356 117.578 70.5032 117.144 69.707C116.564 68.6752 116.093 67.5681 115.739 66.4088C115.379 64.9953 115.356 63.4963 115.674 62.0693C115.992 60.6424 116.638 59.3401 117.545 58.2996C117.617 58.2206 117.713 58.1776 117.813 58.1798C117.912 58.182 118.007 58.2293 118.076 58.3114C118.146 58.3935 118.184 58.5037 118.183 58.6182C118.182 58.7326 118.142 58.8419 118.071 58.9223C117.262 59.8503 116.686 61.0116 116.403 62.284C116.119 63.5565 116.139 64.8932 116.461 66.1536C116.797 67.2473 117.244 68.2915 117.793 69.2643C118.248 70.0976 118.646 70.9694 118.985 71.872C119.755 74.0666 119.584 77.0255 117.751 78.1868C117.695 78.2221 117.633 78.2408 117.569 78.241Z" fill="#83839C"/>
<path d="M99.2969 116.071L43.7008 142.517C41.6963 143.461 39.4962 143.712 37.3694 143.241C35.2425 142.771 33.281 141.598 31.7244 139.867C30.1679 138.136 29.0838 135.921 28.6045 133.493C28.1252 131.066 28.2716 128.53 29.0257 126.196L45.6075 74.1395C47.7513 67.5049 53.7904 63.6898 59.563 66.1544C62.3348 67.3377 64.5841 69.7382 65.8162 72.8277C67.0482 75.9173 67.162 79.4428 66.1326 82.6288L58.5692 107.268L91.1529 92.8289" fill="#7768D8"/>
<path d="M99.16 116.308C99.1304 116.308 99.1015 116.297 99.0769 116.278C99.0523 116.259 99.0332 116.233 99.0218 116.201L90.9325 93.1138L58.4579 107.519C58.4311 107.531 58.4017 107.534 58.3735 107.527C58.3453 107.52 58.3195 107.504 58.2991 107.48C58.2788 107.457 58.2648 107.427 58.259 107.395C58.2531 107.362 58.2556 107.329 58.2661 107.298L63.2877 92.4837C63.302 92.4415 63.3303 92.4076 63.3664 92.3894C63.4025 92.3712 63.4434 92.3702 63.4801 92.3867C63.5168 92.4031 63.5463 92.4357 63.5621 92.4771C63.5779 92.5186 63.5788 92.5656 63.5645 92.6078L58.6652 107.06L90.9623 92.7336C90.9987 92.7175 91.0392 92.7185 91.075 92.7363C91.1108 92.7542 91.1391 92.7875 91.1537 92.8291L99.2978 116.073C99.3119 116.115 99.3113 116.162 99.2959 116.204C99.2805 116.245 99.2517 116.278 99.2155 116.296C99.1978 116.304 99.179 116.308 99.16 116.308Z" fill="#232429"/>
<path d="M48.261 112.101C48.2262 112.101 48.1924 112.088 48.1656 112.062C48.1387 112.037 48.1204 112.001 48.1139 111.962C48.1074 111.923 48.1132 111.882 48.1301 111.847C48.1471 111.812 48.1742 111.785 48.2067 111.771L58.3778 107.171C58.3961 107.162 58.4156 107.158 58.4353 107.158C58.455 107.158 58.4745 107.163 58.4927 107.172C58.5108 107.181 58.5272 107.194 58.541 107.21C58.5548 107.226 58.5656 107.245 58.5728 107.266C58.58 107.288 58.5835 107.31 58.5831 107.333C58.5827 107.355 58.5784 107.378 58.5704 107.398C58.5624 107.419 58.5509 107.438 58.5366 107.453C58.5223 107.469 58.5054 107.481 58.4869 107.489L48.3154 112.089C48.298 112.097 48.2796 112.101 48.261 112.101Z" fill="#232429"/>
<path d="M50.6296 139.43C50.5951 139.43 50.5616 139.417 50.5349 139.392C50.5083 139.367 50.49 139.332 50.4833 139.293C50.4766 139.254 50.4819 139.214 50.4982 139.179C50.5146 139.144 50.541 139.117 50.5729 139.102L99.1067 115.98C99.1248 115.971 99.1441 115.967 99.1636 115.967C99.1831 115.967 99.2024 115.971 99.2204 115.98C99.2384 115.988 99.2547 116.001 99.2685 116.017C99.2823 116.033 99.2932 116.052 99.3006 116.072C99.3081 116.093 99.3119 116.115 99.3118 116.138C99.3118 116.16 99.3079 116.182 99.3005 116.203C99.293 116.224 99.282 116.242 99.2682 116.258C99.2544 116.274 99.238 116.287 99.22 116.295L50.6862 139.417C50.6683 139.426 50.649 139.43 50.6296 139.43Z" fill="#232429"/>
<path d="M297.031 278.585C296.931 278.585 296.835 278.539 296.764 278.458C296.232 277.847 295.365 266.628 293.029 233.228C292.073 219.561 291.171 206.652 290.512 198.808C290.465 198.247 290.276 198.182 290.214 198.16C289.312 197.848 286.57 200.333 285.039 202.51C284.976 202.599 284.884 202.656 284.785 202.669C284.685 202.681 284.585 202.647 284.508 202.575C284.43 202.502 284.38 202.397 284.369 202.283C284.359 202.168 284.388 202.054 284.451 201.964C285.464 200.525 288.764 196.752 290.431 197.329C290.767 197.445 291.186 197.781 291.264 198.724C291.923 206.576 292.826 219.488 293.782 233.158C295.201 253.455 296.809 276.45 297.337 277.898C297.378 277.963 297.402 278.039 297.407 278.119C297.413 278.198 297.398 278.278 297.367 278.349C297.335 278.42 297.287 278.48 297.228 278.521C297.168 278.563 297.1 278.585 297.031 278.585Z" fill="#494949"/>
<path d="M289.543 213.206C295.809 207.434 297.885 198.449 294.181 193.138C290.478 187.827 282.396 188.202 276.131 193.974C269.866 199.746 267.79 208.731 271.493 214.042C275.197 219.353 283.278 218.978 289.543 213.206Z" fill="#7768D8"/>
<path opacity="0.2" d="M289.543 213.206C295.809 207.434 297.885 198.449 294.181 193.138C290.478 187.827 282.396 188.202 276.131 193.974C269.866 199.746 267.79 208.731 271.493 214.042C275.197 219.353 283.278 218.978 289.543 213.206Z" fill="white"/>
<path d="M273.251 215.389C273.215 215.389 273.18 215.378 273.15 215.355C273.12 215.333 273.096 215.302 273.08 215.264C273.065 215.227 273.059 215.185 273.064 215.145C273.069 215.104 273.083 215.065 273.106 215.033L290.962 190.284C290.977 190.262 290.997 190.243 291.019 190.229C291.041 190.216 291.065 190.207 291.09 190.204C291.115 190.201 291.14 190.204 291.164 190.213C291.188 190.221 291.21 190.235 291.23 190.253C291.249 190.272 291.265 190.294 291.276 190.32C291.288 190.345 291.295 190.373 291.297 190.402C291.299 190.431 291.296 190.46 291.288 190.487C291.281 190.515 291.268 190.54 291.252 190.562L273.397 215.311C273.379 215.335 273.357 215.355 273.332 215.369C273.306 215.382 273.279 215.389 273.251 215.389Z" fill="white"/>
<path d="M300.927 273.281C300.866 273.281 300.807 273.265 300.753 273.233C300.7 273.201 300.654 273.155 300.619 273.099C300.584 273.042 300.561 272.977 300.553 272.908C300.544 272.84 300.55 272.77 300.57 272.704L307.277 250.534C307.474 249.883 307.811 249.298 308.256 248.835C308.7 248.372 309.239 248.045 309.823 247.883C310.406 247.721 311.015 247.73 311.595 247.909C312.175 248.088 312.706 248.431 313.14 248.907L316.686 252.801C316.758 252.881 316.8 252.99 316.802 253.105C316.805 253.22 316.767 253.331 316.698 253.415C316.629 253.498 316.533 253.546 316.433 253.549C316.333 253.551 316.236 253.508 316.164 253.429L312.618 249.535C312.275 249.16 311.856 248.889 311.399 248.747C310.941 248.606 310.46 248.599 310 248.727C309.539 248.854 309.114 249.113 308.763 249.478C308.412 249.844 308.146 250.305 307.99 250.819L301.283 272.989C301.257 273.075 301.209 273.148 301.145 273.201C301.081 273.253 301.005 273.281 300.927 273.281Z" fill="#494949"/>
<path d="M326.593 265.075C331.236 260.851 330.96 251.56 325.976 244.323C320.993 237.086 313.189 234.645 308.546 238.869C303.903 243.093 304.179 252.384 309.162 259.621C314.146 266.857 321.949 269.299 326.593 265.075Z" fill="#7768D8"/>
<path d="M293.985 277.173C293.9 277.173 293.817 277.14 293.751 277.079C293.684 277.019 293.637 276.934 293.618 276.84L282.363 222.747C282.286 222.379 282.122 222.042 281.889 221.773C281.656 221.504 281.363 221.315 281.043 221.225C280.722 221.135 280.386 221.149 280.072 221.265C279.758 221.38 279.477 221.593 279.262 221.88L275.792 226.488C275.76 226.531 275.72 226.566 275.676 226.592C275.632 226.617 275.583 226.633 275.534 226.637C275.484 226.641 275.435 226.634 275.388 226.616C275.341 226.598 275.297 226.569 275.259 226.532C275.222 226.495 275.191 226.449 275.169 226.398C275.147 226.348 275.133 226.292 275.13 226.235C275.126 226.178 275.133 226.121 275.148 226.067C275.164 226.013 275.189 225.963 275.221 225.92L278.691 221.311C278.998 220.905 279.396 220.603 279.843 220.439C280.289 220.276 280.766 220.257 281.221 220.384C281.676 220.512 282.092 220.782 282.423 221.163C282.753 221.545 282.986 222.024 283.095 222.547L294.351 276.639C294.374 276.751 294.357 276.869 294.305 276.967C294.253 277.065 294.169 277.136 294.071 277.162C294.043 277.17 294.014 277.173 293.985 277.173Z" fill="#494949"/>
<path d="M289.834 238.503C291.203 229.409 287.582 221.096 281.747 219.936C275.912 218.777 270.072 225.209 268.704 234.303C267.336 243.397 270.957 251.71 276.792 252.87C282.627 254.029 288.466 247.597 289.834 238.503Z" fill="#7768D8"/>
<path d="M297.033 278.586C297.017 278.586 297.001 278.585 296.986 278.583C296.887 278.569 296.796 278.51 296.734 278.42C296.673 278.329 296.645 278.214 296.657 278.1L303.845 211.026C303.923 210.295 304.183 209.605 304.594 209.04C305.005 208.475 305.549 208.059 306.161 207.841C306.774 207.623 307.427 207.613 308.044 207.812C308.661 208.012 309.215 208.411 309.638 208.964L317.853 219.658C317.92 219.745 317.953 219.858 317.947 219.973C317.941 220.087 317.895 220.195 317.82 220.271C317.745 220.347 317.647 220.386 317.547 220.379C317.447 220.372 317.353 220.319 317.287 220.233L309.072 209.538C308.744 209.111 308.316 208.802 307.839 208.648C307.363 208.494 306.857 208.502 306.384 208.671C305.911 208.839 305.49 209.161 305.173 209.598C304.855 210.035 304.654 210.569 304.594 211.134L297.405 278.205C297.394 278.31 297.35 278.407 297.282 278.477C297.213 278.547 297.125 278.586 297.033 278.586Z" fill="#494949"/>
<path d="M326.277 225.602C329.143 219.646 325.771 211.197 318.744 206.729C311.718 202.262 303.699 203.469 300.832 209.425C297.966 215.381 301.339 223.83 308.365 228.298C315.391 232.765 323.411 231.558 326.277 225.602Z" fill="#7768D8"/>
<path opacity="0.2" d="M326.593 265.075C331.236 260.851 330.96 251.56 325.976 244.323C320.993 237.086 313.189 234.645 308.546 238.869C303.903 243.093 304.179 252.384 309.162 259.621C314.146 266.857 321.949 269.299 326.593 265.075Z" fill="white"/>
<path opacity="0.5" d="M289.834 238.503C291.203 229.409 287.582 221.096 281.747 219.936C275.912 218.777 270.072 225.209 268.704 234.303C267.336 243.397 270.957 251.71 276.792 252.87C282.627 254.029 288.466 247.597 289.834 238.503Z" fill="white"/>
<path opacity="0.5" d="M326.277 225.602C329.143 219.646 325.771 211.197 318.744 206.729C311.718 202.262 303.699 203.469 300.832 209.425C297.966 215.381 301.339 223.83 308.365 228.298C315.391 232.765 323.411 231.558 326.277 225.602Z" fill="white"/>
<path d="M306.225 335.497H287.84L284.793 267.883H309.272L306.225 335.497Z" fill="#292A2E"/>
<path opacity="0.3" d="M306.225 335.497H287.84L284.793 267.883H309.272L306.225 335.497Z" fill="white"/>
<path d="M326.592 265.29C326.564 265.291 326.535 265.283 326.51 265.269C326.484 265.255 326.462 265.234 326.444 265.208L308.396 239.002C308.365 238.957 308.351 238.9 308.357 238.842C308.362 238.785 308.388 238.733 308.427 238.697C308.466 238.662 308.516 238.645 308.566 238.652C308.616 238.658 308.661 238.688 308.692 238.733L326.74 264.939C326.762 264.97 326.776 265.009 326.78 265.049C326.784 265.09 326.777 265.131 326.762 265.168C326.747 265.204 326.722 265.235 326.692 265.257C326.662 265.279 326.628 265.29 326.592 265.29Z" fill="white"/>
<path d="M325.078 227.699C325.038 227.699 324.999 227.684 324.967 227.656L301.872 208.275C301.852 208.258 301.835 208.237 301.823 208.213C301.81 208.189 301.801 208.162 301.797 208.133C301.793 208.105 301.794 208.076 301.8 208.049C301.806 208.021 301.817 207.995 301.831 207.972C301.846 207.949 301.864 207.929 301.885 207.915C301.907 207.9 301.93 207.89 301.955 207.885C301.979 207.881 302.004 207.882 302.028 207.889C302.052 207.896 302.075 207.908 302.095 207.925L325.189 227.307C325.221 227.334 325.244 227.372 325.256 227.415C325.268 227.459 325.268 227.505 325.255 227.548C325.243 227.591 325.219 227.629 325.187 227.656C325.156 227.683 325.117 227.697 325.078 227.698V227.699Z" fill="white"/>
<path d="M275.855 252.585C275.838 252.585 275.822 252.583 275.806 252.578C275.758 252.563 275.716 252.527 275.691 252.477C275.666 252.427 275.659 252.368 275.672 252.312L283.024 220.653C283.03 220.625 283.041 220.599 283.056 220.575C283.071 220.552 283.09 220.533 283.112 220.518C283.133 220.504 283.157 220.494 283.182 220.49C283.207 220.486 283.232 220.488 283.256 220.496C283.28 220.503 283.303 220.516 283.323 220.534C283.343 220.551 283.359 220.573 283.372 220.598C283.384 220.623 283.392 220.651 283.395 220.679C283.398 220.708 283.396 220.737 283.389 220.765L276.037 252.424C276.027 252.471 276.003 252.511 275.97 252.541C275.937 252.57 275.896 252.585 275.855 252.585Z" fill="white"/>
</svg>
