<svg width="335" height="335" viewBox="0 0 335 335" fill="none" xmlns="http://www.w3.org/2000/svg">
<g clip-path="url(#clip0_792_4927)">
<path d="M46.8247 310.271C48.2197 310.271 49.3506 309.14 49.3506 307.745C49.3506 306.35 48.2197 305.219 46.8247 305.219C45.4297 305.219 44.2988 306.35 44.2988 307.745C44.2988 309.14 45.4297 310.271 46.8247 310.271Z" fill="#4E4E61" fill-opacity="0.2"/>
<path d="M67.0513 310.271C68.4463 310.271 69.5772 309.14 69.5772 307.745C69.5772 306.35 68.4463 305.219 67.0513 305.219C65.6563 305.219 64.5254 306.35 64.5254 307.745C64.5254 309.14 65.6563 310.271 67.0513 310.271Z" fill="#4E4E61" fill-opacity="0.2"/>
<path d="M87.2779 310.271C88.6729 310.271 89.8038 309.14 89.8038 307.745C89.8038 306.35 88.6729 305.219 87.2779 305.219C85.8828 305.219 84.752 306.35 84.752 307.745C84.752 309.14 85.8828 310.271 87.2779 310.271Z" fill="#4E4E61" fill-opacity="0.2"/>
<path d="M107.504 310.271C108.899 310.271 110.03 309.14 110.03 307.745C110.03 306.35 108.899 305.219 107.504 305.219C106.109 305.219 104.979 306.35 104.979 307.745C104.979 309.14 106.109 310.271 107.504 310.271Z" fill="#4E4E61" fill-opacity="0.2"/>
<path d="M46.8247 290.044C48.2197 290.044 49.3506 288.913 49.3506 287.518C49.3506 286.123 48.2197 284.992 46.8247 284.992C45.4297 284.992 44.2988 286.123 44.2988 287.518C44.2988 288.913 45.4297 290.044 46.8247 290.044Z" fill="#4E4E61" fill-opacity="0.2"/>
<path d="M67.0513 290.044C68.4463 290.044 69.5772 288.913 69.5772 287.518C69.5772 286.123 68.4463 284.992 67.0513 284.992C65.6563 284.992 64.5254 286.123 64.5254 287.518C64.5254 288.913 65.6563 290.044 67.0513 290.044Z" fill="#4E4E61" fill-opacity="0.2"/>
<path d="M87.2779 290.044C88.6729 290.044 89.8038 288.913 89.8038 287.518C89.8038 286.123 88.6729 284.992 87.2779 284.992C85.8828 284.992 84.752 286.123 84.752 287.518C84.752 288.913 85.8828 290.044 87.2779 290.044Z" fill="#4E4E61" fill-opacity="0.2"/>
<path d="M107.504 290.044C108.899 290.044 110.03 288.913 110.03 287.518C110.03 286.123 108.899 284.992 107.504 284.992C106.109 284.992 104.979 286.123 104.979 287.518C104.979 288.913 106.109 290.044 107.504 290.044Z" fill="#4E4E61" fill-opacity="0.2"/>
<path d="M46.8247 269.817C48.2197 269.817 49.3506 268.687 49.3506 267.292C49.3506 265.897 48.2197 264.766 46.8247 264.766C45.4297 264.766 44.2988 265.897 44.2988 267.292C44.2988 268.687 45.4297 269.817 46.8247 269.817Z" fill="#4E4E61" fill-opacity="0.2"/>
<path d="M67.0513 269.817C68.4463 269.817 69.5772 268.687 69.5772 267.292C69.5772 265.897 68.4463 264.766 67.0513 264.766C65.6563 264.766 64.5254 265.897 64.5254 267.292C64.5254 268.687 65.6563 269.817 67.0513 269.817Z" fill="#4E4E61" fill-opacity="0.2"/>
<path d="M87.2779 269.817C88.6729 269.817 89.8038 268.687 89.8038 267.292C89.8038 265.897 88.6729 264.766 87.2779 264.766C85.8828 264.766 84.752 265.897 84.752 267.292C84.752 268.687 85.8828 269.817 87.2779 269.817Z" fill="#4E4E61" fill-opacity="0.2"/>
<path d="M107.504 269.817C108.899 269.817 110.03 268.687 110.03 267.292C110.03 265.897 108.899 264.766 107.504 264.766C106.109 264.766 104.979 265.897 104.979 267.292C104.979 268.687 106.109 269.817 107.504 269.817Z" fill="#4E4E61" fill-opacity="0.2"/>
<path d="M128.305 310.271C129.7 310.271 130.831 309.14 130.831 307.745C130.831 306.35 129.7 305.219 128.305 305.219C126.91 305.219 125.779 306.35 125.779 307.745C125.779 309.14 126.91 310.271 128.305 310.271Z" fill="#4E4E61" fill-opacity="0.2"/>
<path d="M148.532 310.271C149.927 310.271 151.058 309.14 151.058 307.745C151.058 306.35 149.927 305.219 148.532 305.219C147.137 305.219 146.006 306.35 146.006 307.745C146.006 309.14 147.137 310.271 148.532 310.271Z" fill="#4E4E61" fill-opacity="0.2"/>
<path d="M128.305 290.044C129.7 290.044 130.831 288.913 130.831 287.518C130.831 286.123 129.7 284.992 128.305 284.992C126.91 284.992 125.779 286.123 125.779 287.518C125.779 288.913 126.91 290.044 128.305 290.044Z" fill="#4E4E61" fill-opacity="0.2"/>
<path d="M148.532 290.044C149.927 290.044 151.058 288.913 151.058 287.518C151.058 286.123 149.927 284.992 148.532 284.992C147.137 284.992 146.006 286.123 146.006 287.518C146.006 288.913 147.137 290.044 148.532 290.044Z" fill="#4E4E61" fill-opacity="0.2"/>
<path d="M128.305 269.817C129.7 269.817 130.831 268.687 130.831 267.292C130.831 265.897 129.7 264.766 128.305 264.766C126.91 264.766 125.779 265.897 125.779 267.292C125.779 268.687 126.91 269.817 128.305 269.817Z" fill="#4E4E61" fill-opacity="0.2"/>
<path d="M148.532 269.817C149.927 269.817 151.058 268.687 151.058 267.292C151.058 265.897 149.927 264.766 148.532 264.766C147.137 264.766 146.006 265.897 146.006 267.292C146.006 268.687 147.137 269.817 148.532 269.817Z" fill="#4E4E61" fill-opacity="0.2"/>
<path d="M70.0865 115.224C70.6607 100.98 59.5792 88.9649 45.3352 88.3873C31.0912 87.8096 19.0787 98.8885 18.5045 113.133C17.9303 127.377 29.0119 139.392 43.2558 139.97C57.4998 140.547 69.5123 129.469 70.0865 115.224Z" fill="#E8A03F"/>
<path d="M62.3175 125.911C68.8003 115.959 65.9878 102.636 56.0355 96.1529C46.0833 89.6701 32.76 92.4827 26.2772 102.435C19.7944 112.387 22.607 125.71 32.5592 132.193C42.5115 138.676 55.8347 135.863 62.3175 125.911Z" fill="#ECB45E"/>
<path d="M51.7984 127.292L53.1156 131.648L47.5814 133.322L46.3232 129.161C42.3266 130.111 38.1987 130.205 35.4028 129.463L36.3448 121.81C39.3987 122.558 43.15 122.494 46.1724 121.58C48.8028 120.785 49.578 119.95 49.2926 119.007C48.2481 115.552 33.9007 122.933 30.8026 112.689C29.4613 108.253 31.5517 103.55 37.7163 100.702L36.4219 96.4217L41.9561 94.748L43.2264 98.9476C46.2153 98.3439 49.2665 98.2374 51.8842 98.817L51.1271 106.372C48.0042 105.816 45.2498 105.92 42.8559 106.644C40.1471 107.463 39.522 108.511 39.8067 109.453C40.803 112.748 55.1631 105.409 58.225 115.535C59.5067 119.773 57.5617 124.391 51.7984 127.292Z" fill="#E8A03F"/>
<path d="M30.0001 88.0858C27.4796 83.2772 24.9597 78.4686 22.4392 73.66C22.0385 72.8956 20.8821 73.5723 21.2821 74.3361C23.802 79.1446 26.3225 83.9532 28.8424 88.7618C29.2437 89.5263 30.4001 88.8496 30.0001 88.0858Z" fill="#4E4E61" fill-opacity="0.2"/>
<path d="M23.7451 91.257C20.3134 89.1539 16.8823 87.0514 13.4505 84.9483C12.7135 84.4967 12.0395 85.6552 12.7745 86.1054C16.2063 88.2085 19.6373 90.3117 23.0691 92.4141C23.8061 92.8657 24.4801 91.7073 23.7451 91.257Z" fill="#4E4E61" fill-opacity="0.2"/>
<path d="M36.9698 71.4363C36.8766 70.5888 35.5353 70.5787 35.6298 71.4363C36.1008 75.7163 36.5718 79.9962 37.0428 84.2762C37.1359 85.1237 38.4773 85.1338 38.3828 84.2762C37.9118 79.9962 37.4408 75.7163 36.9698 71.4363Z" fill="#4E4E61" fill-opacity="0.2"/>
<path d="M282.067 65.3924C282.067 79.8839 267.775 91.6404 250.14 91.6404C249.21 91.6404 248.291 91.6075 247.383 91.5405C245.535 91.4079 243.697 91.9499 242.147 92.969C235.527 97.2972 227.036 97.8734 227.036 97.8734C227.102 97.8292 227.158 97.7849 227.224 97.7407C231.951 94.453 231.995 87.5889 227.545 83.9247C221.777 79.1864 218.213 72.6325 218.213 65.3924C218.213 50.8903 232.505 39.1445 250.14 39.1445C267.775 39.1439 282.067 50.8896 282.067 65.3924Z" fill="#7768D8"/>
<path d="M256.741 78.3726C264.297 70.8167 264.297 58.5661 256.741 51.0102C249.185 43.4544 236.934 43.4543 229.378 51.0102C221.823 58.5661 221.823 70.8167 229.378 78.3726C236.934 85.9285 249.185 85.9284 256.741 78.3726Z" fill="#E8A03F"/>
<path d="M258.491 60.023C261.065 68.534 256.238 77.5469 247.727 80.1203C239.216 82.6945 230.203 77.8671 227.63 69.3561C225.056 60.8451 229.883 51.8323 238.394 49.2588C246.905 46.6847 255.918 51.512 258.491 60.023Z" fill="#ECB45E"/>
<path d="M248.685 74.5197L249.672 77.7853L245.524 79.0402L244.58 75.9207C241.585 76.6329 238.49 76.7032 236.394 76.1471L237.1 70.4106C239.389 70.9707 242.202 70.9231 244.467 70.2384C246.439 69.6421 247.02 69.0163 246.806 68.3095C246.023 65.7192 235.268 71.2521 232.946 63.5732C231.94 60.2474 233.507 56.7218 238.128 54.5872L237.158 51.3792L241.307 50.125L242.259 53.2733C244.498 52.8211 246.786 52.7407 248.748 53.1755L248.181 58.839C245.84 58.4223 243.775 58.5 241.981 59.0427C239.95 59.6564 239.481 60.4417 239.695 61.1485C240.442 63.6188 251.206 58.1174 253.502 65.7072C254.463 68.8837 253.005 72.3455 248.685 74.5197Z" fill="#E8A03F"/>
<path d="M258.953 84.4082L247.887 73.3425L253.024 68.205L258.953 74.1331L274.495 58.5918L279.633 63.7294L258.953 84.4082Z" fill="#6455E7"/>
<path d="M72.9823 153.307L82.6611 161.766C78.7664 163.8 70.1053 168.872 66.6609 175.223L62.1993 166.241L49.5417 159.571C49.5417 159.571 32.2771 154.95 31.3036 154.121C30.3301 153.278 24.7638 146.23 24.7638 146.23L15.6953 138.833C19.7642 135.229 23.3541 138.019 23.3541 138.019C23.3541 138.019 25.0981 136.813 27.1905 137.35C29.2829 137.888 35.605 142.872 35.605 142.872L53.7272 147.581L43.6276 138.63C45.4004 135.026 48.8014 136.479 48.8014 136.479C48.8014 136.479 66.8217 143.077 68.6669 145.431C70.5268 147.785 72.9823 153.307 72.9823 153.307Z" fill="#E48C59"/>
<path d="M43.264 152.231C43.2057 152.231 43.1461 152.221 43.0878 152.199L32.2814 148.159C32.2412 148.144 32.2037 148.124 32.1681 148.1C31.8345 147.865 23.9861 142.348 23.097 141.611C22.163 140.837 21.5071 139.821 21.4796 139.778C21.3624 139.595 21.3765 139.358 21.5138 139.19L23.028 137.335C23.2042 137.12 23.5205 137.088 23.7349 137.264C23.9499 137.439 23.9821 137.755 23.8065 137.97L22.5329 139.531C22.7754 139.859 23.2116 140.402 23.7382 140.838C24.5603 141.519 31.9913 146.747 32.6934 147.241L43.4402 151.258C43.7002 151.355 43.8322 151.644 43.735 151.904C43.6593 152.106 43.4677 152.231 43.264 152.231Z" fill="#222A40"/>
<path d="M40.738 155.312C40.675 155.312 40.6101 155.3 40.5477 155.274C40.2442 155.15 33.098 152.22 31.7426 151.402C30.3999 150.591 24.7679 146.445 24.5287 146.269C24.3056 146.104 24.2574 145.79 24.4222 145.566C24.587 145.342 24.9019 145.295 25.125 145.459C25.1833 145.502 30.9594 149.754 32.2625 150.541C33.5523 151.32 40.8559 154.314 40.9296 154.344C41.1863 154.449 41.3095 154.743 41.2043 155C41.1239 155.194 40.9357 155.312 40.738 155.312Z" fill="#222A40"/>
<path d="M88.4016 164.498C84.2744 164.904 80.162 165.326 76.0488 165.762C78.1412 164.294 80.176 163.103 81.7311 162.26C83.0537 162.129 84.3903 161.984 85.7276 161.867L88.4016 164.498Z" fill="#A0A8FB"/>
<path d="M171.935 134.096L170.947 136.813L170.627 134.168C171.062 134.154 171.499 134.125 171.935 134.096Z" fill="#7F85FA"/>
<path d="M262.515 169.874L239.292 167.854L237.461 180.164L237.025 183.099L233.028 210.115L232.578 213.079L230.921 224.284H230.906C230.906 224.284 230.906 224.299 230.906 224.313L229.395 234.515L230.833 249.599L231.109 252.506L232.213 264.204C232.213 264.204 231.486 264.582 230.15 265.221C222.506 268.912 194.996 281.338 172.02 281.163C150.919 281.003 132.884 268.636 126.054 263.273C124.164 261.776 123.133 260.832 123.133 260.832L124.251 253.304L124.688 250.426L126.373 239.148C126.373 239.148 113.44 239.832 107.918 233.234C107.365 232.565 106.479 231.461 105.36 230.022C104.749 229.252 104.066 228.365 103.311 227.392C96.9021 219.109 85.9154 204.576 77.4574 193.343C76.7451 192.384 76.0477 191.468 75.3649 190.567C69.7262 183.068 65.6426 177.618 65.6426 177.618C65.8898 176.804 66.2382 176.005 66.6596 175.22C68.6649 171.515 72.4578 168.23 76.0477 165.76C78.1401 164.292 80.1749 163.101 81.7299 162.258C82.0643 162.084 82.3691 161.909 82.6599 161.763C83.8659 161.124 84.6217 160.775 84.6217 160.775L85.7258 161.865L88.3998 164.496L111.419 187.166C111.419 187.166 113.962 175.032 117.101 161.764C117.319 160.776 117.566 159.788 117.799 158.799C119.412 152.085 121.141 145.299 122.754 139.82C123.059 138.774 123.35 137.785 123.64 136.856C125.007 132.511 126.242 129.386 127.172 128.456C131.619 124.009 157.516 117.76 157.516 117.76C156.048 123.21 163.111 134.312 163.111 134.312C164.056 129.212 169.229 122.672 169.229 122.672L170.624 134.167L170.944 136.812L171.932 134.094L175.391 124.561C175.391 124.561 177.847 127.496 179.648 133.658C179.91 134.545 180.157 135.489 180.375 136.521C180.404 136.608 180.434 136.71 180.448 136.812C180.448 136.812 180.68 136.695 181.087 136.478C182.09 135.969 184.197 134.835 186.842 133.252C194.268 128.775 205.894 120.652 208.684 112.194C208.684 112.194 208.292 110.901 207.405 109.171C211.575 108.459 216.255 111.613 216.255 111.613C216.255 111.613 231.31 120.347 247.586 129.778C249.112 130.65 250.638 131.537 252.164 132.423C263.339 138.876 274.471 145.314 281.185 149.136C283.292 150.342 284.963 151.301 286.068 151.912C286.33 152.057 286.562 152.188 286.751 152.29L262.515 169.874Z" fill="#7768D8"/>
<path d="M230.151 265.222L243.928 334.498H173.243L169.232 322.378L166.369 334.498H107.789L126.057 263.275C132.887 268.638 150.922 281.005 172.023 281.165C194.998 281.339 222.507 268.913 230.151 265.222Z" fill="#222A40"/>
<path d="M207.407 109.173C208.294 110.902 208.686 112.195 208.686 112.195C204.501 124.882 180.45 136.813 180.45 136.813C178.692 128.5 175.393 124.562 175.393 124.562C189.998 115.204 196.261 105.844 196.261 105.844L195.607 100.395C201.929 100.468 205.649 105.7 207.407 109.173Z" fill="#A0A8FB"/>
<path d="M192.396 91.5747C187.949 101.995 177.486 106.035 175.378 107.212C173.94 107.996 169.566 108.665 165.525 108.752C165.235 108.767 164.944 108.767 164.654 108.767C161.849 108.767 159.335 108.461 158.274 107.677C155.585 105.729 150.761 94.2199 149.336 87.4335C148.144 81.7512 148.566 64.3848 148.726 58.9497C156.022 62.8592 167.676 52.5117 167.676 52.5117C167.676 52.5117 162.372 59.5889 166.266 59.8944C170.161 60.2 184.752 52.5117 184.752 52.5117C184.752 61.3041 191.916 67.1894 191.916 67.1894C192.526 65.3436 196.247 63.629 196.247 63.629C197.177 63.4113 198.165 63.4113 199.11 63.5855C200.723 63.9345 202.162 64.8786 203.237 66.1288C203.586 66.5355 203.891 66.9717 204.152 67.4219C205.213 69.2966 205.577 71.5491 205.373 73.6851C205.053 76.8387 203.527 79.8323 201.173 81.9395C199.241 83.6835 196.741 84.8024 194.155 85.0931C194.096 85.5434 194.024 85.9796 193.937 86.4157C193.602 88.2897 193.064 90.0049 192.396 91.5747Z" fill="#E48C59"/>
<path d="M195.606 100.396L196.26 105.845C196.26 105.845 189.996 115.204 175.392 124.563L170.945 136.814L169.23 122.674C169.23 122.674 165.684 119.797 164.652 117.355C191.232 117.457 192.366 92.5485 192.394 91.575C193.063 90.0059 193.6 88.2907 193.935 86.416L195.606 100.396Z" fill="#E48C59"/>
<path d="M175.377 107.211C177.484 106.034 187.948 101.994 192.394 91.5742C192.366 92.5477 191.232 117.456 164.652 117.354L165.524 108.751C169.564 108.665 173.939 107.996 175.377 107.211Z" fill="#222A40"/>
<path d="M164.653 117.355C165.685 119.796 169.231 122.674 169.231 122.674C169.231 122.674 164.057 129.214 163.112 134.314C163.112 134.314 156.05 123.212 157.517 117.762C157.517 117.762 158.142 111.804 164.653 109.173V108.767C164.943 108.767 165.234 108.767 165.524 108.752L164.653 117.355Z" fill="#A0A8FB"/>
<path d="M203.236 66.1279C202.16 64.8784 200.722 63.9337 199.109 63.5846C198.164 63.4104 197.176 63.4104 196.246 63.6281C196.246 63.6281 192.525 65.3427 191.915 67.1885C191.915 67.1885 184.751 61.3026 184.751 52.5108C184.751 52.5108 170.16 60.1984 166.265 59.8936C162.37 59.5887 167.675 52.5108 167.675 52.5108C167.675 52.5108 156.02 62.8576 148.725 58.9489C146.981 58.0042 145.469 56.2461 144.452 53.3249C144.452 53.3249 137.273 40.8997 138.392 36.3511C139.467 31.9043 152.779 37.5866 153.389 37.8479C153.287 37.4412 151.645 31.3958 152.968 29.4776C154.349 27.5158 162.53 32.0644 165.16 31.7006C165.654 31.6283 166.614 31.4534 167.863 31.2209C173.269 30.1891 184.27 28.0525 187.874 28.9831C192.321 30.1456 193.135 37.7608 193.135 37.7608C193.135 37.7608 202.072 38.6767 204.034 42.5131C206.012 46.3495 203.236 66.1279 203.236 66.1279Z" fill="#222A40"/>
<path d="M162.242 67.1875C162.242 67.1875 164.061 71.6484 163.966 77.0499C163.87 82.4514 160.702 85.7927 158.931 85.4664C157.159 85.1401 153.91 82.688 154.215 79.8974C154.215 79.8974 154.928 78.0207 156.309 76.544C157.69 75.068 162.242 67.1875 162.242 67.1875Z" fill="#E07045"/>
<path d="M161.042 86.9222C160.986 86.9222 160.929 86.9128 160.873 86.8927C158.389 86.0063 156.162 84.4606 154.432 82.4225C153.415 81.2225 153.427 79.4102 154.463 78.1124C157.638 74.1339 160.4 69.8104 162.67 65.2624C162.794 65.0145 163.096 64.9134 163.344 65.0373C163.593 65.1613 163.693 65.4628 163.569 65.7113C161.267 70.323 158.468 74.7061 155.249 78.7395C154.512 79.6628 154.491 80.9384 155.199 81.7726C156.814 83.6767 158.893 85.1199 161.211 85.946C161.472 86.0391 161.609 86.3266 161.515 86.5879C161.442 86.7936 161.249 86.9222 161.042 86.9222Z" fill="#222A40"/>
<path d="M170.24 68.641C170.388 70.6604 171.932 72.1934 173.689 72.0647C175.446 71.9361 176.75 70.1948 176.603 68.1754C176.455 66.156 174.91 64.623 173.154 64.7517C171.397 64.8803 170.092 66.6216 170.24 68.641Z" fill="#222A40"/>
<path d="M150.224 70.1078C150.372 72.1272 151.917 73.6602 153.674 73.5315C155.43 73.4029 156.735 71.6616 156.587 69.6422C156.439 67.6228 154.895 66.0898 153.138 66.2185C151.381 66.3464 150.076 68.0884 150.224 70.1078Z" fill="#222A40"/>
<path d="M171.168 57.1427C173.939 57.1721 176.591 57.68 179.178 58.6689C179.644 58.8471 180.071 59.3979 180.233 59.8508C180.408 60.3426 180.394 61.0153 180.14 61.4816C179.884 61.9506 179.483 62.376 178.958 62.5368C178.39 62.711 177.88 62.6554 177.327 62.4437C177.188 62.3908 177.047 62.3425 176.907 62.2923C175.338 61.7824 173.718 61.4695 172.072 61.3543C171.873 61.3469 171.674 61.3369 171.475 61.3349C170.907 61.3288 170.391 61.2116 169.948 60.8297C169.558 60.4927 169.24 59.9165 169.225 59.3925C169.196 58.3319 169.991 57.1306 171.168 57.1427Z" fill="#222A40"/>
<path d="M147.725 63.8568C148.046 64.283 148.504 64.6461 149.048 64.7285C149.635 64.8176 150.131 64.689 150.648 64.3989C150.778 64.3258 150.91 64.2582 151.041 64.1878C152.518 63.4548 154.076 62.9088 155.688 62.5557C155.883 62.5195 156.079 62.48 156.276 62.4492C156.837 62.3601 157.331 62.1691 157.713 61.7269C158.05 61.337 158.28 60.7199 158.218 60.2C158.094 59.1461 157.131 58.0734 155.968 58.257C153.232 58.6898 150.682 59.5789 148.267 60.9343" fill="#222A40"/>
<path d="M157.694 93.6284C159.003 95.682 162.198 99.3047 167.892 97.9185C173.09 96.6736 174.034 91.7156 174.143 89.1783C174.191 88.3951 173.453 87.8169 172.709 88.0192L158.372 91.9561C157.628 92.1578 157.29 93.0047 157.694 93.6284Z" fill="white"/>
<path d="M195.321 81.1094C195.318 81.1094 195.315 81.1094 195.312 81.1094C195.034 81.1047 194.814 80.8756 194.818 80.5982C194.9 76.0375 196.972 71.4915 200.361 68.4384C200.568 68.2514 200.885 68.2688 201.072 68.4752C201.257 68.6816 201.24 68.9991 201.034 69.1847C197.847 72.0557 195.9 76.3289 195.823 80.6163C195.818 80.8896 195.594 81.1094 195.321 81.1094Z" fill="#222A40"/>
<path d="M195.027 36.5528C194.764 36.5528 194.542 36.3471 194.526 36.0797C194.367 33.4118 193.752 30.8129 192.697 28.3567C192.588 28.1014 192.706 27.8059 192.961 27.6967C193.218 27.5882 193.511 27.7054 193.621 27.96C194.722 30.5234 195.364 33.2356 195.53 36.0201C195.546 36.2968 195.335 36.5353 195.058 36.5514C195.047 36.5528 195.037 36.5528 195.027 36.5528Z" fill="#222A40"/>
<path d="M196.944 35.6416C196.928 35.6416 196.911 35.6409 196.895 35.6396C196.619 35.6121 196.416 35.3669 196.444 35.0909C196.674 32.7338 196.503 30.3741 195.935 28.0766C195.868 27.8073 196.033 27.5346 196.302 27.4683C196.574 27.4006 196.844 27.5661 196.911 27.8354C197.506 30.2434 197.685 32.7177 197.443 35.188C197.419 35.4473 197.2 35.6416 196.944 35.6416Z" fill="#222A40"/>
<path d="M231.544 335.002C231.306 335.002 231.096 334.833 231.051 334.591L219.036 270.028C218.985 269.756 219.165 269.493 219.438 269.442C219.713 269.392 219.973 269.571 220.024 269.844L232.039 334.407C232.09 334.68 231.911 334.943 231.637 334.993C231.605 334.999 231.575 335.002 231.544 335.002Z" fill="#0F1626"/>
<path d="M235.989 165.055C235.845 165.055 235.702 164.993 235.603 164.874L216.75 142.25C216.571 142.037 216.6 141.72 216.814 141.543C217.027 141.365 217.344 141.393 217.522 141.607L236.375 164.23C236.554 164.443 236.525 164.76 236.311 164.938C236.217 165.017 236.103 165.055 235.989 165.055Z" fill="#222A40"/>
<path d="M233.429 167.883C233.323 167.883 233.215 167.849 233.123 167.778L217.233 155.524C217.013 155.354 216.972 155.039 217.142 154.819C217.311 154.6 217.625 154.557 217.847 154.728L233.737 166.982C233.957 167.152 233.998 167.467 233.828 167.687C233.73 167.816 233.58 167.883 233.429 167.883Z" fill="#222A40"/>
<path d="M149.661 57.749C149.582 57.749 149.503 57.731 149.429 57.6928C142.275 53.9696 137.248 46.682 136.308 38.6735C136.145 37.2826 136.067 35.2699 137.27 33.8615C138.021 32.9812 139.235 32.4358 140.599 32.3641C141.815 32.3018 142.978 32.5872 144.055 32.9054C147.807 34.015 151.298 35.7643 154.43 38.106C154.652 38.2721 154.697 38.587 154.531 38.8095C154.364 39.0319 154.05 39.0775 153.827 38.9107C150.79 36.6407 147.407 34.9449 143.77 33.8696C142.778 33.5761 141.716 33.3168 140.651 33.3684C139.561 33.4254 138.607 33.8428 138.034 34.5141C137.087 35.6236 137.165 37.3529 137.307 38.5569C138.208 46.2391 143.03 53.2299 149.893 56.801C150.139 56.929 150.234 57.2331 150.106 57.479C150.018 57.6506 149.842 57.749 149.661 57.749Z" fill="#222A40"/>
<path d="M155.016 40.3214C154.869 40.3214 154.723 40.2571 154.624 40.1338C152.666 37.6957 151.268 34.7946 150.583 31.7441C150.078 29.4989 150.45 27.7676 151.629 26.8678C152.955 25.8575 154.743 26.2541 155.973 26.6407C159.662 27.7998 163.122 29.789 165.98 32.3933C166.186 32.5802 166.2 32.8978 166.014 33.1035C165.826 33.3085 165.508 33.3233 165.303 33.1363C162.553 30.6299 159.222 28.715 155.671 27.5995C154.054 27.0909 152.965 27.113 152.238 27.6671C151.093 28.5415 151.324 30.459 151.563 31.5243C152.215 34.4261 153.544 37.1865 155.407 39.5054C155.581 39.7218 155.546 40.038 155.33 40.2115C155.238 40.2846 155.127 40.3214 155.016 40.3214Z" fill="#222A40"/>
<path d="M169.232 322.881C169.015 322.881 168.815 322.74 168.75 322.522L162.457 301.353L129.032 289.32C128.771 289.225 128.635 288.938 128.729 288.677C128.823 288.415 129.111 288.279 129.372 288.374L163.037 300.493C163.188 300.548 163.303 300.67 163.349 300.823L169.714 322.236C169.793 322.502 169.641 322.781 169.375 322.861C169.327 322.875 169.279 322.881 169.232 322.881Z" fill="#0F1626"/>
<path d="M159.096 303.893C159.089 303.893 159.083 303.893 159.076 303.892C132.24 302.878 131.927 302.727 131.809 302.67C131.559 302.549 131.455 302.248 131.575 301.998C131.683 301.777 131.931 301.671 132.158 301.732C133.08 301.868 148.746 302.497 159.114 302.889C159.391 302.899 159.607 303.132 159.597 303.409C159.588 303.681 159.365 303.893 159.096 303.893Z" fill="#0F1626"/>
<path d="M289.459 215.719C287.744 223.177 284.092 228.944 279.146 233.022L275.924 227.82C265.97 227.86 259.525 233.843 259.525 233.843L260.529 240.351C257.036 240.71 253.386 240.621 249.666 240.134C248.603 240.005 247.505 239.823 246.419 239.613C245.803 239.48 245.175 239.362 244.544 239.217L236.856 237.456L233.499 236.68C233.897 236.456 234.267 236.237 234.608 236.02C234.833 235.884 235.043 235.751 235.207 235.58C237.302 233.881 237.828 230.816 236.366 228.445L234.149 224.849L231.193 220.068C221.255 220.12 214.797 226.118 214.797 226.118L215.709 232.005C211.932 230.544 208.504 228.668 205.473 226.43C200.204 222.573 196.209 217.618 194.03 211.805C192.335 207.287 191.736 202.264 192.482 196.838C192.639 195.771 192.837 194.701 193.088 193.597C194.666 186.712 198.024 180.668 202.588 175.872C203.459 174.942 204.377 174.064 205.341 173.223C206.872 171.89 208.498 170.687 210.21 169.615C211.815 168.61 213.501 167.709 215.245 166.956C222.548 163.742 230.92 162.758 239.268 164.675L260.525 169.555C269.072 171.508 276.321 176.227 281.532 182.527C282.858 184.127 284.024 185.8 285.077 187.597C289.907 195.785 291.745 205.778 289.459 215.719Z" fill="#A0A8FB"/>
<path d="M281.088 236.19C282.669 238.768 281.904 242.167 279.322 243.761C276.377 245.573 272.165 247.608 267.286 248.375C264.29 248.846 261.502 246.734 261.045 243.742L260.522 240.349L259.527 233.845C259.527 233.845 265.974 227.863 275.92 227.814L279.141 233.028L281.088 236.19Z" fill="#6455E7"/>
<path d="M287.609 182.725C287.221 184.538 286.363 186.285 285.077 187.591C284.029 185.807 282.857 184.122 281.535 182.533C283.015 182.129 284.374 181.312 285.38 180.17C286.769 178.601 287.484 176.479 287.319 174.396C287.858 177.15 288.208 179.989 287.609 182.725Z" fill="#7C72FA"/>
<path d="M266.132 173.103L265.769 174.716L262.645 174.004L257.732 172.87L242.386 169.354L237.504 168.235L234.146 167.464L234.51 165.852L236.399 166.287L240.541 167.232L260.334 171.766L264.461 172.725L266.132 173.103Z" fill="#222A40"/>
<path d="M246.426 239.616C247.508 239.821 248.596 239.999 249.666 240.131C247.764 242.253 243.892 243.18 241.6 241.582C239.801 240.326 238.226 238.906 236.859 237.449L244.546 239.213C245.17 239.357 245.798 239.487 246.426 239.616Z" fill="#7C72FA"/>
<path d="M250.221 172.418C250.221 172.418 249.825 180.375 247.859 182.711C245.904 185.064 239.365 183.535 239.365 183.535L235.113 177.27C235.113 177.27 236.659 169.849 238.692 169.772C240.736 169.713 250.221 172.418 250.221 172.418Z" fill="#6455E7"/>
<path d="M236.367 228.445C237.825 230.81 237.307 233.878 235.214 235.586C235.035 235.744 234.832 235.884 234.615 236.02C234.264 236.239 233.9 236.456 233.506 236.68C230.648 238.297 226.861 239.973 222.565 240.631C219.583 241.105 216.791 239.007 216.334 236.014L215.722 232.014L215.709 232.011L214.803 226.114C214.803 226.114 221.253 220.119 231.198 220.07L234.147 224.849L236.367 228.445Z" fill="#6455E7"/>
<path d="M230.104 181.41C231.856 181.812 232.845 183.983 232.324 186.251C231.804 188.519 229.971 190.028 228.219 189.626C226.467 189.224 225.475 187.066 225.996 184.799C226.517 182.531 228.353 181.008 230.104 181.41Z" fill="#222A40"/>
<path d="M224.272 202.414C224.233 202.705 224.181 202.993 224.126 203.295C222.534 210.235 215.404 210.471 207.121 208.571C199.082 206.726 192.92 203.555 193.983 197.052C194.016 196.845 194.066 196.627 194.116 196.41C195.334 191.101 199.165 185.619 204.633 184.214C204.864 184.139 205.104 184.094 205.342 184.048C205.759 183.973 206.188 183.914 206.623 183.885C207.713 183.806 208.851 183.895 210.032 184.167C217.935 185.98 225.038 195.457 224.276 202.329C224.284 202.359 224.278 202.386 224.272 202.414ZM213.54 201.838C214.844 202.137 216.327 200.534 216.847 198.266C217.365 196.011 216.729 193.921 215.426 193.623C214.122 193.323 212.639 194.927 212.122 197.182C211.601 199.449 212.236 201.539 213.54 201.838ZM203.72 195.297C204.241 193.029 203.618 190.943 202.315 190.643C201.011 190.344 199.528 191.948 199.008 194.215C198.487 196.483 199.126 198.56 200.43 198.859C201.733 199.158 203.199 197.564 203.72 195.297Z" fill="#6455E7"/>
<path d="M216.845 198.267C216.325 200.535 214.842 202.138 213.538 201.839C212.234 201.54 211.599 199.45 212.119 197.183C212.636 194.929 214.119 193.325 215.423 193.624C216.727 193.923 217.362 196.012 216.845 198.267Z" fill="#222A40"/>
<path d="M205.481 226.433L201.796 231.777C200.08 234.271 196.653 234.942 194.159 233.227C190.103 230.409 187.202 226.728 185.341 223.813C183.709 221.266 184.488 217.872 187.049 216.244L194.03 211.799C196.211 217.616 200.207 222.565 205.481 226.433Z" fill="#6455E7"/>
<path d="M214.61 161.531C216.194 162.352 215.451 166.027 215.239 166.95C213.507 167.711 211.814 168.608 210.212 169.613C208.493 170.691 206.873 171.892 205.338 173.227L205.099 172.957C205.031 172.942 201.45 172.106 200.72 169.18C199.986 166.21 203.082 158.887 203.082 158.887C203.082 158.887 212.811 160.59 214.61 161.531Z" fill="#6455E7"/>
<path d="M208.74 180.826C208.615 181.369 208.415 181.866 208.157 182.307C206.555 183.369 205.341 184.048 205.341 184.048C205.102 184.093 204.863 184.139 204.632 184.215C202.88 183.813 201.892 181.642 202.412 179.374C202.639 178.383 203.12 177.535 203.73 176.932C204.523 176.156 205.526 175.771 206.517 175.998C208.269 176.401 209.26 178.558 208.74 180.826Z" fill="#222A40"/>
<path d="M202.313 190.643C203.617 190.942 204.238 193.029 203.718 195.297C203.197 197.565 201.731 199.158 200.427 198.859C199.124 198.56 198.485 196.484 199.006 194.216C199.526 191.948 201.01 190.344 202.313 190.643Z" fill="#222A40"/>
<path d="M224.277 202.83C224.259 202.83 224.24 202.83 224.221 202.827C223.946 202.797 223.747 202.548 223.778 202.272C224.536 195.43 217.413 186.374 209.92 184.655C208.807 184.399 207.71 184.31 206.66 184.385C206.272 184.41 205.872 184.461 205.432 184.542C205.185 184.584 204.947 184.444 204.867 184.209C204.786 183.973 204.891 183.715 205.111 183.601C206.961 182.645 211.978 179.813 212.983 178.203C213.13 177.967 213.439 177.897 213.675 178.043C213.91 178.19 213.982 178.5 213.835 178.735C212.946 180.159 209.793 182.128 207.647 183.356C208.465 183.375 209.302 183.482 210.145 183.675C218.061 185.492 225.583 195.108 224.776 202.384C224.748 202.64 224.53 202.83 224.277 202.83Z" fill="#222A40"/>
<path d="M283.51 223.265C283.412 223.265 283.312 223.236 283.225 223.176C282.996 223.018 282.939 222.705 283.097 222.476C286.26 217.901 288.014 212.32 288.037 206.759C288.059 201.198 286.351 195.603 283.227 191.002C283.071 190.772 283.13 190.46 283.359 190.304C283.591 190.147 283.903 190.208 284.057 190.437C287.296 195.204 289.066 201.002 289.042 206.763C289.018 212.525 287.201 218.307 283.924 223.048C283.827 223.189 283.669 223.265 283.51 223.265Z" fill="#222A40"/>
<path d="M237.901 178.388C237.895 178.388 237.888 178.388 237.882 178.387C237.605 178.376 237.388 178.143 237.399 177.867C237.485 175.613 239.445 173.942 241.336 173.455C243.041 173.018 244.962 173.24 247.21 174.137C247.468 174.24 247.593 174.533 247.49 174.791C247.387 175.048 247.096 175.176 246.836 175.071C244.795 174.255 243.08 174.045 241.586 174.429C240.055 174.822 238.471 176.143 238.402 177.905C238.392 178.175 238.169 178.388 237.901 178.388Z" fill="#222A40"/>
<path d="M212.233 167.463C211.979 167.463 211.761 167.271 211.733 167.013C211.592 165.683 210.916 164.437 209.878 163.594C208.839 162.751 207.484 162.345 206.15 162.479C205.879 162.51 205.628 162.306 205.6 162.03C205.572 161.754 205.774 161.508 206.05 161.48C207.645 161.318 209.269 161.805 210.511 162.814C211.754 163.823 212.564 165.315 212.732 166.907C212.761 167.183 212.562 167.431 212.286 167.46C212.269 167.462 212.251 167.463 212.233 167.463Z" fill="#222A40"/>
<path d="M294.835 171.285C294.675 172.113 293.992 174.017 292.989 176.604C292.626 177.52 292.233 178.507 291.783 179.583C289.08 186.224 285.054 195.569 281.508 203.664C281.043 204.724 280.593 205.742 280.157 206.745V206.759C276.713 214.592 274.025 220.579 274.025 220.579C273.327 220.478 272.644 220.362 271.976 220.216C263.663 218.429 258.257 213.255 256.019 210.712C255.801 210.465 255.612 210.233 255.452 210.044C255.045 209.549 254.842 209.259 254.842 209.259L255.248 207.167L260.233 181.604L260.8 178.669L262.515 169.877L286.755 152.293C294.631 156.636 295.852 166.242 294.835 171.285Z" fill="#7768D8"/>
<path d="M256.019 210.711C258.257 213.254 263.663 218.427 271.976 220.215C271.976 220.215 260.466 244.513 257.196 244.47C253.927 244.441 240.905 243.467 239.554 241.985C238.217 240.502 237.738 237.276 237.738 237.276C237.738 237.276 252.895 236.331 252.895 235.997C252.895 235.648 247.431 226.028 247.431 226.028C247.431 226.028 237.404 228.411 234.178 228.048C231.126 227.685 230.922 224.662 230.908 224.313C230.908 224.299 230.908 224.284 230.908 224.284H230.923L253.637 215.42L256.019 210.711Z" fill="#E48C59"/>
<path d="M255.844 171.054C255.767 171.122 255.68 171.189 255.602 171.247C255.215 171.557 254.809 171.847 254.393 172.098L251.123 171.344L240.909 169.003L237.659 168.258C237.378 167.842 237.136 167.407 236.924 166.962C234.534 162.01 235.705 155.878 240.126 152.192C245.329 147.849 253.077 148.555 257.42 153.769C261.754 158.973 261.048 166.72 255.844 171.054Z" fill="#E8A03F"/>
<path d="M254.529 169.488C253.997 169.923 253.436 170.31 252.856 170.61C252.295 170.919 251.715 171.171 251.125 171.345L240.911 169.004C240.63 168.743 240.369 168.472 240.127 168.172C239.973 167.988 239.818 167.794 239.682 167.591C236.578 163.277 237.284 157.223 241.433 153.769C245.776 150.152 252.228 150.742 255.845 155.075C259.452 159.409 258.872 165.87 254.529 169.488Z" fill="#ECB45E"/>
<path d="M242.421 139.181C243.38 132.928 239.088 127.08 232.834 126.121C226.58 125.162 220.733 129.454 219.774 135.708C218.815 141.962 223.107 147.809 229.361 148.768C235.614 149.727 241.462 145.435 242.421 139.181Z" fill="#E8A03F"/>
<path d="M239.293 132.525C242.004 137.038 240.538 142.912 236.025 145.623C231.512 148.334 225.638 146.869 222.928 142.355C220.217 137.842 221.682 131.968 226.195 129.258C230.708 126.547 236.582 128.012 239.293 132.525Z" fill="#ECB45E"/>
<path d="M263.055 139.51C267.515 137.954 269.869 133.077 268.312 128.617C266.756 124.157 261.879 121.803 257.419 123.36C252.959 124.916 250.605 129.793 252.162 134.253C253.718 138.713 258.595 141.067 263.055 139.51Z" fill="#E8A03F"/>
<path d="M266.331 127.772C268.355 131.141 267.261 135.526 263.892 137.55C260.522 139.574 256.138 138.48 254.114 135.11C252.09 131.741 253.184 127.356 256.553 125.332C259.922 123.309 264.307 124.403 266.331 127.772Z" fill="#ECB45E"/>
<path d="M126.376 239.654C126.348 239.654 126.32 239.652 126.292 239.646C126.018 239.6 125.834 239.341 125.88 239.068L131.526 205.784V151.086C131.526 150.809 131.751 150.584 132.029 150.584C132.306 150.584 132.531 150.809 132.531 151.086V205.827C132.531 205.855 132.529 205.883 132.524 205.911L126.87 239.235C126.829 239.481 126.616 239.654 126.376 239.654Z" fill="#222A40"/>
</g>
<defs>
<clipPath id="clip0_792_4927">
<rect width="335" height="335" fill="white"/>
</clipPath>
</defs>
</svg>
