<svg width="25" height="24" viewBox="0 0 25 24" fill="none" xmlns="http://www.w3.org/2000/svg">
<g clip-path="url(#clip0_457_746)">
<path d="M14.2162 19.1146L8.59118 4.11456C8.51748 3.91798 8.38554 3.74857 8.21299 3.62898C8.04044 3.50939 7.83549 3.44531 7.62555 3.44531C7.41561 3.44531 7.21067 3.50939 7.03812 3.62898C6.86556 3.74857 6.73362 3.91798 6.65993 4.11456L1.03493 19.1146C0.941892 19.37 0.953481 19.6518 1.06717 19.8988C1.18086 20.1457 1.38746 20.3378 1.64202 20.4331C1.89658 20.5285 2.17851 20.5196 2.42648 20.4082C2.67446 20.2968 2.86842 20.092 2.96618 19.8383L4.66118 15.3186C4.66785 15.3008 4.67982 15.2853 4.69548 15.2745C4.71115 15.2636 4.72976 15.2577 4.74883 15.2577L10.5023 15.2577C10.5213 15.2577 10.54 15.2636 10.5556 15.2745C10.5713 15.2853 10.5833 15.3008 10.5899 15.3186L12.2849 19.8383C12.3827 20.092 12.5766 20.2968 12.8246 20.4082C13.0726 20.5196 13.3545 20.5285 13.6091 20.4331C13.8636 20.3378 14.0702 20.1457 14.1839 19.8988C14.2976 19.6518 14.3092 19.37 14.2162 19.1146ZM5.50493 13.0677L7.5379 7.64659C7.54464 7.62881 7.55664 7.61349 7.5723 7.60268C7.58795 7.59188 7.60653 7.58609 7.62555 7.58609C7.64458 7.58609 7.66315 7.59188 7.67881 7.60268C7.69446 7.61349 7.70646 7.62881 7.71321 7.64659L9.74618 13.0686C9.75147 13.0828 9.75326 13.098 9.75139 13.113C9.74951 13.128 9.74404 13.1424 9.73543 13.1548C9.72682 13.1672 9.71532 13.1774 9.70193 13.1844C9.68854 13.1915 9.67365 13.1952 9.65852 13.1952L5.59258 13.1952C5.57746 13.1952 5.56256 13.1915 5.54917 13.1844C5.53578 13.1774 5.52429 13.1672 5.51568 13.1548C5.50706 13.1424 5.50159 13.128 5.49972 13.113C5.49785 13.098 5.49963 13.0828 5.50493 13.0686V13.0677Z" fill="white"/>
<path d="M19.2861 7.94544C17.3305 7.93138 15.5792 9.06435 14.833 10.8236C14.7261 11.0753 14.7235 11.3592 14.8259 11.6128C14.9283 11.8665 15.1273 12.069 15.3791 12.1759C15.6308 12.2828 15.9147 12.2854 16.1683 12.1829C16.4219 12.0805 16.6245 11.8816 16.7314 11.6298C17.1477 10.6506 18.1269 10.0154 19.2308 10.0079C20.7458 9.99763 21.9687 11.2501 21.9687 12.7665C21.9688 12.7848 21.9617 12.8023 21.949 12.8154C21.9363 12.8286 21.919 12.8362 21.9008 12.8368C20.8733 12.8654 19.6545 12.9339 18.567 13.0618C16.0006 13.3637 14.4687 14.7629 14.4687 16.8048C14.4687 17.8918 14.8794 18.8673 15.6252 19.5554C16.325 20.2 17.2812 20.5548 18.3125 20.5548C19.7656 20.5548 21.0167 20.1798 21.9659 19.4664H21.9687C21.9682 19.6018 21.9943 19.736 22.0455 19.8614C22.0968 19.9867 22.1723 20.1007 22.2676 20.1969C22.363 20.2931 22.4763 20.3695 22.6012 20.4219C22.7261 20.4742 22.8601 20.5015 22.9955 20.5021C23.131 20.5027 23.2652 20.4766 23.3905 20.4253C23.5159 20.374 23.6299 20.2985 23.7261 20.2032C23.8222 20.1078 23.8987 19.9945 23.951 19.8696C24.0034 19.7447 24.0307 19.6107 24.0312 19.4753L24.0312 12.7722C24.0312 10.1387 21.9219 7.96466 19.2861 7.94544ZM18.3125 18.4923C17.4908 18.4923 16.5312 18.0503 16.5312 16.8048C16.5312 16.3047 16.7108 15.9545 17.1139 15.669C17.5062 15.3911 18.1077 15.1928 18.808 15.1103C19.798 14.9936 20.9089 14.9293 21.8614 14.9008C21.8741 14.9007 21.8867 14.9033 21.8984 14.9083C21.9101 14.9133 21.9206 14.9206 21.9294 14.9298C21.9382 14.9391 21.945 14.95 21.9494 14.9619C21.9538 14.9738 21.9558 14.9865 21.9552 14.9992C21.8281 17.3486 20.6309 18.4923 18.3125 18.4923Z" fill="white"/>
</g>
<defs>
<clipPath id="clip0_457_746">
<rect width="24" height="24" fill="white" transform="translate(0.5)"/>
</clipPath>
</defs>
</svg>
