<svg width="70" height="41" viewBox="0 0 70 41" fill="none" xmlns="http://www.w3.org/2000/svg">
<path d="M66.6531 0.652344H3.3469C1.49849 0.652344 0 1.81989 0 3.26032V38.0441C0 39.4846 1.49849 40.6523 3.3469 40.6523H66.6531C68.5015 40.6523 70 39.4846 70 38.0441V3.26032C70 1.81989 68.5015 0.652344 66.6531 0.652344ZM17.2949 34.8214H9.33333C8.04476 34.8214 7 34.0073 7 33.0032C7 31.9991 8.04476 31.185 9.33333 31.185H17.2949C18.5835 31.185 19.6283 31.9991 19.6283 33.0032C19.6283 34.0073 18.5835 34.8214 17.2949 34.8214ZM25.2554 28.0032H9.33333C8.04476 28.0032 7 27.1891 7 26.185C7 25.1809 8.04476 24.3668 9.33333 24.3668H25.2554C26.5439 24.3668 27.5887 25.1809 27.5887 26.185C27.5887 27.1891 26.5439 28.0032 25.2554 28.0032Z" fill="#353542"/>
</svg>
