<svg width="25" height="24" viewBox="0 0 25 24" fill="none" xmlns="http://www.w3.org/2000/svg">
<path d="M20 6.75H5C3.75736 6.75 2.75 7.75736 2.75 9V18C2.75 19.2426 3.75736 20.25 5 20.25H20C21.2426 20.25 22.25 19.2426 22.25 18V9C22.25 7.75736 21.2426 6.75 20 6.75Z" stroke="#AD7BFF" stroke-linejoin="round"/>
<path d="M19.7825 6.75022V5.34397C19.7824 4.99907 19.7062 4.65844 19.5592 4.34639C19.4123 4.03434 19.1984 3.75856 18.9326 3.53873C18.6668 3.3189 18.3558 3.16044 18.0217 3.07464C17.6877 2.98885 17.3388 2.97784 17 3.04241L4.655 5.14944C4.1189 5.2516 3.63526 5.53765 3.28749 5.95824C2.93972 6.37883 2.74963 6.9076 2.75 7.45335V9.75022" stroke="#AD7BFF" stroke-linejoin="round"/>
<path d="M17.75 14.5C17.5522 14.5 17.3589 14.4414 17.1944 14.3315C17.03 14.2216 16.9018 14.0654 16.8261 13.8827C16.7504 13.7 16.7306 13.4989 16.7692 13.3049C16.8078 13.1109 16.903 12.9327 17.0429 12.7929C17.1827 12.653 17.3609 12.5578 17.5549 12.5192C17.7489 12.4806 17.95 12.5004 18.1327 12.5761C18.3154 12.6518 18.4716 12.78 18.5815 12.9444C18.6914 13.1089 18.75 13.3022 18.75 13.5C18.75 13.7652 18.6446 14.0196 18.4571 14.2071C18.2696 14.3946 18.0152 14.5 17.75 14.5Z" fill="white" stroke="#AD7BFF"/>
</svg>
