<svg width="89" height="132" viewBox="0 0 89 132" fill="none" xmlns="http://www.w3.org/2000/svg">
<path d="M29.8944 98.7227L0.488281 115.092L29.8944 131.461V98.7227Z" fill="#1A0E2C"/>
<path d="M29.8947 131.461L59.3008 115.091L29.8947 98.7227V131.461Z" fill="#1E1232"/>
<path d="M59.0702 82.3516L29.6641 98.7211L59.0702 115.09V82.3516Z" fill="#280C55"/>
<path d="M29.6639 65.9824L0.257812 82.352L29.6639 98.7206V65.9824Z" fill="#240A4E"/>
<path d="M59.0702 49.6133L29.6641 65.9828L59.0702 82.3515V49.6133Z" fill="#230651"/>
<path d="M29.9296 0.539139L29.9494 33.2453L59.3744 16.9083L29.9296 0.539139Z" fill="#4903BA"/>
<path d="M29.2405 32.8365L59.3553 49.615L59.3742 16.9093L29.2405 32.8365Z" fill="#4406A8"/>
<path d="M59.3361 49.6465L88.7422 33.2769L59.3361 16.9083V49.6465Z" fill="#310F68"/>
<path d="M59.0704 82.3516L88.4766 65.982L59.0704 49.6133V82.3516Z" fill="#43138E"/>
<path d="M88.4764 33.2441L59.0703 49.6137L88.4764 65.9824V33.2441Z" fill="#43138E"/>
<path d="M0.488405 82.3516L29.8945 65.982L0.488405 49.6133V82.3516Z" fill="#2E0570"/>
<path d="M29.8944 33.2441L0.488281 49.6137L29.8944 65.9824V33.2441Z" fill="#3A0491"/>
<path d="M0.488405 49.6113L29.8945 33.2418L0.488405 16.8731V49.6113Z" fill="#5508D0"/>
<path d="M0.52317 16.9084L29.9677 33.2788L29.968 0.539249L0.52317 16.9084Z" fill="#5E00F5"/>
<path d="M0.488405 115.09L29.8945 98.7203L0.488405 82.3516V115.09Z" fill="#1F0C3C"/>
<path d="M29.6642 98.7207L59.0703 82.3512L29.6642 65.9825V98.7207Z" fill="#1E0546"/>
</svg>
